<?xml version="1.0" encoding="utf-8"?>
<!-- Generator: Adobe Illustrator 25.4.1, SVG Export Plug-In . SVG Version: 6.00 Build 0)  -->
<svg version="1.1" xmlns="http://www.w3.org/2000/svg" xmlns:xlink="http://www.w3.org/1999/xlink" x="0px" y="0px"
	 viewBox="0 0 55 55" style="enable-background:new 0 0 55 55;" xml:space="preserve">
<style type="text/css">
	.st0{fill:#FFFFFF;}
</style>
<g id="Layer_2">
	<g>
		<path class="st0" d="M42.1,46.7c0.5-0.3,0.9-0.7,1.4-1.1c0.2-0.2,0.4-0.4,0.7-0.6c0.2-0.2,0.4-0.4,0.6-0.6c0.9-1,1.9-2,2.7-3.1
			c0.4-0.5,0.7-1,1-1.6c0.3-0.5,0.6-1,0.8-1.5c0.4-0.9,0.8-1.7,1-2.6c0.1-0.4,0.2-0.7,0.3-0.9c0.1-0.2,0.1-0.5,0.2-0.6
			c0-0.2,0.1-0.3,0.1-0.5c0-0.1,0-0.2,0.1-0.3c0-0.1,0-0.2,0.1-0.3c0.2-0.6,0.3-1.3,0.4-1.9c0.1-0.7,0.2-1.3,0.2-1.9
			c0-0.5,0-0.9,0-1.2c0-0.3,0-0.4,0-0.3c0,0.1,0,0.2,0,0.3c0,0.1,0,0.3,0,0.5c0,0.4-0.1,0.8-0.1,1.4c0,0.1,0,0.3,0,0.4
			c0,0.2,0,0.3-0.1,0.5c0,0.2,0,0.3-0.1,0.4c0,0.1,0,0.3-0.1,0.4c0,0.1-0.1,0.3-0.1,0.4c0,0.2-0.1,0.4-0.2,0.6
			c0,0.2-0.1,0.3-0.1,0.5c-0.1,0.3-0.3,1-0.5,1.7c-0.4,1.3-1,2.6-1.6,3.8c-0.6,1.2-1.4,2.4-2.3,3.4c-0.5,0.6-1.1,1.3-1.6,1.8
			c-0.1,0.1-0.2,0.2-0.2,0.2c-0.1,0.1-0.2,0.2-0.2,0.2c-0.1,0.1-0.3,0.3-0.4,0.4c-0.1,0.1-0.2,0.2-0.3,0.3c-0.1,0.1-0.2,0.2-0.2,0.2
			c-0.5,0.5-1,0.9-1.6,1.3c-0.5,0.4-1.1,0.8-1.7,1.2c-0.5,0.3-1,0.6-1.6,0.9c-0.5,0.3-1.1,0.5-1.7,0.7c-2.1,0.8-4.4,1.4-6.7,1.6
			c-0.1,0-0.1,0-0.2,0c-0.1,0-0.1,0-0.2,0c-0.1,0-0.3,0-0.4,0c-0.1,0-0.3,0-0.4,0l-0.2,0l-0.2,0c-0.1,0-0.3,0-0.4,0
			c-0.1,0-0.3,0-0.4,0c-0.1,0-0.1,0-0.2,0l-0.2,0c-0.1,0-0.3,0-0.4,0c-1.1-0.1-2.2-0.2-3.2-0.4c-0.4-0.1-1-0.2-1.6-0.4
			c-1.6-0.4-3.1-1-4.6-1.8c-0.7-0.4-1.5-0.8-2.1-1.2c-1.1-0.7-2.1-1.5-3-2.4c-0.9-0.9-1.7-1.8-2.4-2.6C10,42,9.9,41.9,10,42
			c0,0,0.1,0.1,0.2,0.2c0.1,0.1,0.2,0.2,0.2,0.3c0.1,0.1,0.1,0.2,0.2,0.2c0.1,0.1,0.1,0.1,0.2,0.2c0.1,0.1,0.1,0.1,0.2,0.2
			s0.1,0.1,0.2,0.2c0.6,0.6,0.7,0.7,1,1c0.1,0.1,0.2,0.2,0.4,0.3c0.5,0.5,1.2,1,1.8,1.5c1.3,1,2.7,1.8,4.2,2.6
			c0.1,0.1,0.2,0.1,0.3,0.2c0.1,0,0.1,0.1,0.2,0.1c0.1,0,0.1,0.1,0.2,0.1c0.1,0.1,0.2,0.1,0.4,0.2c0.1,0,0.2,0.1,0.4,0.1
			c0.1,0,0.2,0.1,0.4,0.1c0.1,0,0.2,0.1,0.3,0.1c0.3,0.1,0.4,0.1,0.1,0c-1.2-0.5-2.5-1.1-3.6-1.7c-0.3-0.2-0.3-0.2-0.2-0.2
			c0.1,0,0.2,0.1,0.3,0.2c0.2,0.1,0.3,0.2,0.6,0.3c0.4,0.2,0.8,0.4,1.3,0.6c0.1,0,0.2,0.1,0.3,0.1c0.1,0,0.2,0.1,0.3,0.1
			c0.2,0.1,0.4,0.2,0.6,0.2c0.5,0.2,1,0.3,1.5,0.4c0.5,0.1,1.1,0.3,1.6,0.4c0.6,0.1,1.1,0.2,1.7,0.3c0.6,0.1,1.2,0.1,1.8,0.1
			c0.1,0,0.3,0,0.4,0c0.1,0,0.3,0,0.4,0c0.1,0,0.1,0,0.2,0c0.1,0,0.1,0,0.2,0c0.1,0,0.3,0,0.4,0c0.2,0,0.3,0,0.5,0
			c0.2,0,0.3,0,0.4,0c0.1,0,0,0-0.1,0c-0.1,0-0.3,0-0.5,0c-0.3,0-0.5,0-0.8,0c-0.1,0-0.3,0-0.4,0c-0.1,0-0.1,0-0.2,0
			c-0.1,0-0.1,0-0.2,0c-1.1,0-2.3-0.2-3.4-0.4c-1.1-0.2-2.2-0.5-3.3-0.8c-2.2-0.7-4.2-1.8-6-3.1c-0.2-0.2-0.4-0.3-0.6-0.5
			c-2.5-1.9-4.6-4.5-6.2-7.3c-0.2-0.5-0.4-0.9-0.6-1.4c0-0.1-0.1-0.3-0.2-0.4C7.1,36.1,7,35.9,7,35.8c-0.4-1-0.6-1.6-0.7-2.3
			c0-0.1-0.1-0.4-0.2-0.7C6,32.6,5.9,32.2,5.9,32c-0.1-0.6-0.2-1.2-0.3-1.8c-0.1-0.6-0.1-1.2-0.1-1.7c0-0.1,0-0.3,0-0.4
			c0-0.1,0-0.3,0-0.4l0-0.2l0-0.2c0-0.1,0-0.3,0-0.4c0-0.6,0.1-1.1,0.1-1.7c0-0.2,0.1-0.4,0.1-0.4c0,0,0,0.3,0,0.4
			c0,0.1,0,0.2,0,0.3c-0.1,1.2-0.1,2.4,0,3.6c0,0.6,0.1,1.2,0.2,1.8C5.9,31.4,6,32,6.1,32.5c0.3,1.3,0.7,2.5,1.2,3.8
			c0.4,0.8,0.8,1.7,1.2,2.4c0.2,0.4,0.5,0.9,0.8,1.3c0.8,1.2,1.7,2.3,2.7,3.3c1,1,2,1.9,3.1,2.6c1.1,0.8,2.2,1.5,3.4,2
			c0.7,0.4,1.5,0.6,2,0.8c0.6,0.2,1.2,0.3,1.7,0.4c0.4,0.1,1.1,0.2,1.8,0.4c0.6,0.1,1.3,0.2,1.9,0.2c1.1,0.1,2.1,0.1,2.9,0
			c0.1,0,0.2,0,0.3,0c0.1,0,0.1,0,0.1,0c0,0-0.1,0-0.3,0c-0.1,0-0.3,0-0.4,0c-1.5,0-3.1-0.1-4.6-0.4l-0.4-0.1l-0.4-0.1
			c-0.1,0-0.3-0.1-0.4-0.1l-0.2-0.1c-0.1,0-0.1,0-0.2-0.1c-0.6-0.2-1.1-0.3-1.6-0.5c-0.1,0-0.2-0.1-0.3-0.1c-0.1,0-0.2-0.1-0.2-0.1
			c-0.1,0-0.1-0.1-0.2-0.1c-0.1,0-0.1-0.1-0.2-0.1c-0.2-0.1-0.3-0.2-0.4-0.2c0,0-0.2-0.1-0.3-0.2c-1.2-0.6-2.4-1.2-3.4-1.9
			c-0.6-0.4-1.2-0.8-1.5-1.1c-0.6-0.5-1.3-1.1-2.1-1.9c-0.6-0.6-1.2-1.3-1.7-1.9c-0.5-0.7-1-1.4-1.4-2.1c-0.4-0.7-0.8-1.5-1.2-2.2
			c-0.4-0.8-0.7-1.6-0.9-2.4c0-0.1,0-0.2-0.1-0.2c0-0.1,0-0.2-0.1-0.2c0-0.1-0.1-0.3-0.1-0.4c0-0.1-0.1-0.3-0.1-0.4
			c0-0.1-0.1-0.3-0.1-0.4c0-0.1-0.1-0.2-0.1-0.4c0-0.1-0.1-0.2-0.1-0.3c0-0.2-0.1-0.4-0.1-0.6C6,31,5.9,30.3,5.8,29.5
			c-0.1-0.5-0.1-1-0.1-1.5c0-0.2,0-0.5,0-0.7c0-0.1,0-0.2,0-0.4c0-0.1,0-0.2,0-0.4c0-1,0.2-1.9,0.3-2.8l0-0.2l0-0.2L6.2,23
			c0-0.1,0-0.2,0.1-0.3c0-0.1,0-0.2,0.1-0.3c0.1-0.4,0.2-0.9,0.4-1.3c0.1-0.4,0.3-0.9,0.4-1.3c0.2-0.4,0.3-0.9,0.5-1.3
			c0.2-0.4,0.4-0.8,0.6-1.2l0.2-0.3l0.1-0.2l0.1-0.2l0.2-0.3L8.9,16c0.5-0.8,1-1.6,1.6-2.3c1.4-1.7,3-3.3,4.8-4.5
			c0.4-0.3,0.9-0.6,1.3-0.9c0.6-0.4,1.2-0.7,1.8-1c0.6-0.3,1.1-0.6,1.6-0.8c0.5-0.2,1.1-0.5,1.9-0.7c0.2-0.1,0.4-0.1,0.6-0.2
			c0.1,0,0.2-0.1,0.3-0.1c0.1,0,0.2-0.1,0.3-0.1c0.2,0,0.4-0.1,0.6-0.1c0.2,0,0.4-0.1,0.5-0.1c0.5-0.1,1.2-0.2,2-0.3
			c1.2-0.1,2.4-0.1,3.5-0.1c0.1,0,0.3,0,0.4,0c0.1,0,0.3,0,0.4,0c0.3,0,0.5,0,0.8,0.1c0.5,0.1,1,0.1,1.4,0.2c-0.1,0-0.2-0.1-0.3-0.1
			c-0.2-0.1-0.3-0.1-0.1-0.1c0.1,0,0.1,0,0.2,0c0,0,0.1,0,0.1,0c0,0,0.1,0,0.1,0c0.1,0,0.2,0,0.4,0.1c0.1,0,0.3,0.1,0.4,0.1
			c0.9,0.2,1.8,0.5,2.7,0.9c0.1,0,0.2,0.1,0.3,0.1c0.1,0,0.2,0.1,0.3,0.1c0.1,0,0.2,0.1,0.3,0.1c0.1,0,0.2,0.1,0.3,0.1
			C37.8,6.8,38,6.9,38.2,7c0.1,0,0.2,0.1,0.3,0.1l0.3,0.2c0.2,0.1,0.4,0.2,0.5,0.2c0.1,0,0.1,0,0,0c-0.2-0.1-0.5-0.3-0.8-0.5
			C38.3,7,38,6.8,37.8,6.7c-1.9-0.9-4-1.5-6.3-1.9c-0.2,0-0.4-0.1-0.6-0.1c-0.2,0-0.4,0-0.6-0.1c-0.1,0-0.2,0-0.2,0c0,0-0.1,0-0.1,0
			c0,0-0.1,0-0.1,0c-0.2,0-0.3,0-0.5,0c-0.3,0-0.6,0-0.9,0c-0.3,0-0.6,0-0.9,0c-0.1,0-0.3,0-0.4,0c-0.1,0-0.1,0-0.2,0l-0.2,0
			c-0.1,0-0.2,0-0.3,0c-0.1,0-0.2,0-0.3,0c-0.1,0-0.4,0-0.6,0.1c-0.1,0-0.2,0-0.3,0c-0.1,0-0.2,0-0.2,0c-0.1,0-0.2,0-0.2,0
			c-0.1,0-0.2,0-0.2,0c-0.2,0-0.3,0-0.5,0.1c-0.1,0-0.3,0.1-0.4,0.1C23.5,5,23.4,5,23.2,5c-0.1,0-0.3,0.1-0.4,0.1
			c-0.1,0-0.3,0.1-0.4,0.1c-0.1,0-0.3,0.1-0.4,0.1c0.4-0.1,1-0.3,1.6-0.4c0.1,0,0.3-0.1,0.4-0.1c0.1,0,0.3-0.1,0.4-0.1
			c0.2-0.1,0.5-0.1,0.7-0.1c0.4-0.1,0.8-0.1,1.1-0.2c0.1,0,0,0,0,0c0,0-0.2,0-0.4,0c-0.5,0.1-1.1,0.1-1.6,0.2
			c-0.8,0.1-1.6,0.3-2.3,0.5c-0.1,0-0.2,0.1-0.3,0.1c-0.1,0-0.2,0.1-0.3,0.1c-0.2,0.1-0.4,0.1-0.5,0.2c-0.3,0.1-0.5,0.2-0.5,0.1
			c0.1-0.1,0.7-0.3,1.4-0.5c1.5-0.5,3.1-0.8,4.8-0.9c1.2-0.1,2.5-0.1,3.7,0c0.8,0.1,1.7,0.2,2.3,0.3c0.8,0.1,1.7,0.3,2.6,0.6
			c0.5,0.2,1,0.4,1.5,0.5c0.8,0.3,1.6,0.7,2.4,1.1c0.8,0.4,1.5,0.8,2.2,1.3c0.6,0.4,1.3,0.9,1.9,1.4c0.6,0.5,1.2,1.1,1.8,1.7
			c0.2,0.2,0.5,0.5,0.7,0.7c0.2,0.2,0.4,0.4,0.4,0.4c0-0.1,0-0.2-0.1-0.3c0,0-0.2-0.2-0.3-0.4c-0.3-0.4-0.9-1.1-1.7-1.7
			c-0.5-0.4-1-0.8-1.5-1.2c-0.1,0-0.1-0.1-0.2-0.1c-0.1,0-0.1-0.1-0.2-0.1c-0.1-0.1-0.2-0.1-0.3-0.2c-0.2-0.1-0.4-0.3-0.5-0.4
			c-0.2-0.1-0.3-0.2-0.5-0.3c-0.1-0.1-0.3-0.2-0.4-0.3C40.2,7.2,40,7.1,39.9,7c-0.2-0.1-0.3-0.2-0.5-0.3c-0.1-0.1-0.2-0.1-0.3-0.2
			c-0.1,0-0.1-0.1-0.2-0.1c-0.1,0-0.1-0.1-0.2-0.1c-0.1-0.1-0.2-0.1-0.4-0.2C38.2,6,38.1,6,37.9,5.9c-0.3-0.1-0.3-0.2-0.2-0.1
			c0.1,0,0.4,0.1,0.7,0.3c0.2,0.1,0.3,0.2,0.5,0.2c0.2,0.1,0.3,0.2,0.5,0.3c0.6,0.3,0.6,0.3,0.1,0C39.2,6.3,38.7,6,38,5.7
			c-0.9-0.4-1.8-0.7-2.7-1c-2.5-0.8-5.2-1.1-7.8-1.1c-1,0-1.8,0.1-2.4,0.1c-0.2,0-0.3,0-0.5,0.1c-0.2,0-0.4,0.1-0.7,0.1
			c-0.2,0-0.5,0.1-0.7,0.1C23,4,22.9,4,22.7,4.1c-0.1,0-0.2,0.1-0.3,0.1C20.1,4.8,18,5.6,16,6.8c-0.1,0-0.2,0.1-0.3,0.2
			c-0.1,0.1-0.2,0.1-0.3,0.2c-0.2,0.1-0.3,0.2-0.3,0.2c0.9-0.6,2-1.2,3-1.7c1.1-0.5,2.2-0.9,3.3-1.3C21.9,4.2,22.5,4,23,3.9
			c0.3-0.1,0.6-0.1,0.8-0.2l0.4-0.1l0.2,0l0.2,0c0.6-0.1,1.1-0.1,1.7-0.2c0.3,0,0.6,0,0.8,0c0.1,0,0.3,0,0.4,0c0.1,0,0.3,0,0.4,0
			c0.1,0,0.2,0,0.3,0c0.1,0,0.2,0,0.2,0c0.1,0,0.2,0,0-0.1c-0.1,0-0.2,0-0.4,0c-0.2,0-0.4,0-0.7,0c-0.7,0-1.5,0-2.2,0.1
			c-0.2,0-0.4,0-0.4,0c0,0,0.1,0,0.3-0.1C25.7,3.2,26,3.2,26,3.2c0,0,0,0,0-0.1l0.1,0c-0.1,0-0.3,0-0.4,0c-0.1,0-0.3,0-0.4,0
			c-0.3,0-0.6,0.1-0.8,0.1c-0.5,0.1-1.1,0.2-1.6,0.3c-0.7,0.1-1.6,0.4-1.8,0.4c1-0.3,1.9-0.5,2.9-0.7c1-0.2,1.9-0.3,2.9-0.3
			c1-0.1,2,0,3,0c0.2,0,0.4,0,0.5,0c0.1,0,0.2,0,0.1,0c-0.1,0-0.1,0,0,0c0.1,0,0.3,0,0.8,0.1c1,0.1,1.9,0.3,2.8,0.5
			c0.1,0,0.3,0.1,0.4,0.1c0.1,0,0.3,0.1,0.4,0.1C35.1,3.9,35.3,4,35.3,4c0.4,0.1,1.4,0.4,2.5,0.8c0.7,0.3,1.3,0.6,1.9,0.9
			C40,5.9,40.2,6,40.3,6.1c0.2,0.1,0.4,0.2,0.5,0.3c0.2,0.1,0.3,0.2,0.5,0.2c0.1,0.1,0.2,0.1,0.3,0.2C41.8,6.8,41.9,6.9,42,7
			c0.2,0.2,0.4,0.3,0.7,0.5c0.4,0.3,0.8,0.6,1.1,0.8c-0.2-0.2-0.4-0.4-0.6-0.5c-0.2-0.2-0.4-0.3-0.6-0.5C42.4,7.1,42.2,7,42,6.8
			c-0.1-0.1-0.2-0.2-0.4-0.3c-0.1,0-0.1-0.1-0.2-0.1c-0.1,0-0.2-0.1-0.2-0.1C40.5,5.8,39.8,5.4,39,5c-0.1-0.1-0.3-0.1-0.4-0.2
			c-0.1,0-0.1-0.1-0.2-0.1c-0.1,0-0.1-0.1-0.2-0.1c-0.1-0.1-0.3-0.1-0.4-0.2c-0.1-0.1-0.3-0.1-0.4-0.2c-0.1-0.1-0.3-0.1-0.4-0.1
			c-0.1,0-0.2-0.1-0.2-0.1c-0.1,0,0,0,0.2,0.1c0.1,0,0.2,0.1,0.3,0.1c0.1,0,0.2,0.1,0.3,0.1c0.2,0.1,0.4,0.2,0.6,0.3
			c-0.4-0.1-0.8-0.3-1.1-0.4c0.4,0.1,0.7,0.3,1.1,0.4C38.3,4.9,38.4,5,38.6,5c-0.2-0.1-0.5-0.2-0.6-0.3c-0.1,0-0.1-0.1-0.2-0.1
			c-0.1,0-0.1-0.1-0.2-0.1c-0.1-0.1-0.2-0.1-0.4-0.2c-0.7-0.3-1.6-0.6-2.6-0.9c-0.2-0.1-0.5-0.1-0.6-0.2c-0.2,0-0.3-0.1-0.4-0.1
			c-0.2-0.1-0.4-0.1-0.4-0.1c-0.1,0,0.4,0-0.2-0.1c-0.1,0-0.3-0.1-0.4-0.1c-1-0.2-2-0.3-3-0.3c-1-0.1-1.9-0.1-2.9,0
			c-0.1,0-0.2,0-0.4,0c-0.1,0-0.3,0-0.4,0c-0.1,0-0.1,0-0.2,0c-0.1,0-0.1,0-0.2,0c-0.1,0-0.3,0-0.4,0c-0.7,0.1-1.4,0.2-2,0.3
			c-0.2,0-0.3,0.1-0.4,0.1c-0.1,0-0.3,0.1-0.4,0.1c-0.1,0-0.1,0-0.2,0c-0.1,0-0.1,0-0.2,0.1c-0.1,0-0.3,0.1-0.4,0.1
			c-0.1,0-0.3,0.1-0.4,0.1c-0.1,0-0.1,0-0.2,0.1c-0.1,0-0.1,0-0.2,0.1c-0.1,0-0.3,0.1-0.4,0.1c-0.1,0-0.3,0.1-0.4,0.1
			C19.5,3.9,19.2,4,19,4.1c-0.1,0-0.3,0.1-0.4,0.1c-0.1,0-0.3,0.1-0.4,0.1C18,4.5,18,4.4,17.9,4.5c-0.1,0-0.3,0.1-0.5,0.2
			c-0.1,0-0.2,0.1-0.3,0.2c-0.1,0.1-0.2,0.1-0.3,0.2c-0.7,0.4-1.4,0.8-2.1,1.2c-0.7,0.4-1.4,0.9-2.1,1.5C12,8.1,11.5,8.6,11,9
			c-0.5,0.5-1,0.9-1.5,1.4c-0.1,0.1-0.2,0.2-0.3,0.3C9.1,10.9,9.1,11,9,11c-0.1,0.1-0.2,0.2-0.1,0.2c0,0,0.1-0.1,0.1-0.1
			c0.2-0.2,0.1-0.1-0.1,0.2c0,0-0.1,0.1-0.1,0.2c0,0.1-0.1,0.1-0.1,0.1c-0.5,0.6-1,1.3-1.3,1.6c0.1-0.1,0.2-0.3,0.3-0.4
			c0.1-0.1,0.2-0.3,0.3-0.4C7.9,12.2,8,12.1,8.1,12c0-0.1,0.1-0.1,0.1-0.2c0-0.1,0.1-0.1,0.1-0.2c0.1-0.1,0.2-0.2,0.2-0.3
			c0.1-0.1,0.1-0.2,0.2-0.2C9,10.8,9.1,10.7,9,10.8c0,0,0-0.1,0.1-0.2c0.1-0.1,0.1-0.1,0.2-0.2c0.1-0.1,0.1-0.2,0.2-0.3
			C9.6,10,9.7,9.9,9.7,9.8C9.8,9.8,9.9,9.7,10,9.6c0.1-0.2,0.3-0.3,0.4-0.5c-0.1,0.1-0.2,0.1,0-0.1c0.2-0.2,0.7-0.7,1.7-1.5
			c1.2-0.9,2.4-1.8,3.7-2.5c0.8-0.4,1.4-0.7,2-1c0.3-0.1,0.5-0.2,0.8-0.3c0.2-0.1,0.5-0.2,0.7-0.2c0.3-0.1,0.5-0.1,0.7-0.2
			c0.2,0,0.4-0.1,0.6-0.1c-0.2,0.1-0.4,0.1-0.6,0.2c-0.2,0.1-0.3,0.1-0.5,0.2c-0.1,0-0.3,0.1-0.4,0.2c-0.1,0.1-0.3,0.1-0.4,0.2
			C18.6,3.9,18.5,4,18.3,4c-0.1,0.1-0.2,0.1-0.4,0.2c-0.1,0.1-0.2,0.1-0.3,0.1c-0.1,0-0.2,0.1-0.3,0.1c-0.1,0-0.2,0.1-0.3,0.1
			c-0.1,0-0.2,0.1-0.2,0.1c-0.2,0.1-0.1,0.1,0,0c0.1,0,0.3-0.1,0.6-0.2c0.3-0.1,0.6-0.2,0.8-0.4C18.4,4.1,18.5,4,18.7,4
			c0.1,0,0.1-0.1,0.2-0.1c0.1,0,0.1-0.1,0.2-0.1c0.5-0.2,1.1-0.4,1.5-0.6c0.3-0.1,0.6-0.2,0.8-0.3c0.1,0,0.3-0.1,0.4-0.1
			c0.1,0,0.3-0.1,0.4-0.1c1.2-0.3,2.5-0.6,4.1-0.7c0.1,0,0.3,0,0.4,0c0.1,0,0.3,0,0.4,0c0.1,0,0.1,0,0.2,0c0.1,0,0.1,0,0.2,0
			c0.1,0,0.3,0,0.4,0c0.1,0,0.3,0,0.4,0c0.1,0,0.1,0,0.2,0l0.2,0c0.1,0,0.3,0,0.4,0c0.1,0,0.3,0,0.4,0c0.2,0,0.4,0,0.5,0
			c0.1,0,0.2,0,0.2,0c0.1,0,0.2,0,0.2,0c0.1,0,0.3,0,0.4,0c0.1,0,0.3,0,0.4,0c0.1,0,0.2,0,0.3,0c0.1,0,0.2,0,0.3,0
			c0.2,0,0.3,0,0.4,0.1c0.5,0.1,0.6,0.1,0.5,0c0,0,0,0-0.1,0c-0.1,0-0.5-0.1-1.1-0.2C31.1,2,30,1.9,29,1.9c-0.7,0-1.5,0-2.2,0
			c-0.7,0-1.5,0.1-2.3,0.2c-1.5,0.2-3,0.5-4.6,1c-1,0.4-1.9,0.7-2.8,1.2c-0.9,0.4-1.7,0.9-2.5,1.3c-0.9,0.5-2.1,1.3-3.3,2.4
			c-1.8,1.6-3.5,3.4-4.8,5.5c0,0.1-0.1,0.1-0.1,0.2c0,0.1-0.1,0.1-0.1,0.2c-0.1,0.1-0.1,0.2-0.2,0.3c-0.1,0.2-0.3,0.4-0.4,0.6
			c-0.1,0.2-0.2,0.4-0.3,0.5c-0.1,0.2-0.2,0.3-0.3,0.5c-0.1,0.2-0.2,0.3-0.2,0.4c0,0.1-0.1,0.1-0.1,0.2c0,0.1-0.1,0.1-0.1,0.2
			c-0.1,0.2,0-0.1,0.3-0.7c0.3-0.7,0.7-1.3,1.1-1.9c0-0.1,0.1-0.2,0.2-0.3c0.1-0.1,0.1-0.2,0.2-0.3c0.1-0.2,0.3-0.5,0.5-0.8
			c0.4-0.6,0.9-1.2,1.4-1.8c1-1.2,2.1-2.2,3.2-3.2C11.6,7.3,11.8,7.2,12,7c0.2-0.1,0.4-0.3,0.5-0.4c0.2-0.1,0.4-0.3,0.4-0.2
			c-0.1,0.1-0.2,0.1-0.2,0.2c-0.1,0.1-0.2,0.1-0.3,0.2c-0.1,0.1-0.2,0.1-0.3,0.2C12,7.1,12,7.2,11.9,7.2c-0.2,0.2-0.1,0.2,0.1,0
			c0.3-0.2,0.7-0.5,1.3-0.9c0.2-0.1,0.4-0.3,0.6-0.4c0.2-0.1,0.4-0.2,0.5-0.3c0.6-0.4,1.4-0.9,1.8-1.1c0.5-0.3,1-0.5,1.7-0.9
			c0.2-0.1,0.3-0.1,0.5-0.2c0.1-0.1,0.2-0.1,0.3-0.1c0.4-0.2,1.1-0.5,2-0.8c0.5-0.1,1-0.3,1.6-0.4c0.6-0.1,1.2-0.3,1.9-0.4
			c0.7-0.1,1.3-0.2,2-0.2c0.7,0,1.4-0.1,2.1-0.1c0.6,0,1.3,0,2,0.1c0.7,0.1,1.4,0.1,2.1,0.2c0.1,0,0.3,0,0.4,0.1
			c0.2,0,0.3,0.1,0.5,0.1c0.1,0,0.1,0,0.2,0.1c0.1,0,0.1,0,0.2,0.1c0.1,0,0.2,0.1,0.3,0.1c0.1,0,0.3,0.1,0.6,0.2
			c0.1,0,0.3,0.1,0.4,0.1c0.2,0,0.3,0.1,0.5,0.1c0.9,0.3,1.9,0.6,2.8,1c0.9,0.4,1.8,0.8,2.6,1.3c0.9,0.5,1.8,1.1,2.7,1.7
			c0.9,0.6,1.7,1.3,2.4,2c0.5,0.5,1.1,1.1,1.6,1.6c0.1,0.1,0.1,0.1,0.2,0.2c0,0,0,0,0,0c-0.7-0.8-1.4-1.6-2.3-2.4
			c-1.1-1-2.3-1.9-3.5-2.6c-0.1-0.1-0.2-0.1-0.3-0.2c-0.4-0.3-0.6-0.4-1.2-0.7C39.6,4,38.6,3.5,37.4,3c-0.1-0.1-0.2-0.1-0.3-0.2
			c-1-0.4-1.9-0.7-2.9-0.9c-1-0.2-2-0.4-3.1-0.6c-0.1,0-0.2-0.1-0.2-0.1c-0.1,0-0.1,0-0.2-0.1c0,0-0.1,0-0.2,0c-0.1,0-0.2,0-0.4,0
			c-0.1,0-0.3,0-0.5,0c-0.2,0-0.3,0-0.5,0c-0.8,0-1.6,0-2.5,0.1c-0.1,0-0.3,0-0.4,0c-0.1,0-0.3,0-0.4,0c-0.1,0-0.3,0-0.4,0
			c-0.1,0-0.3,0-0.4,0c-0.2,0-0.4,0-0.6,0.1c-0.2,0-0.3,0-0.4,0c-0.2,0-0.9,0.1-1.8,0.3c-0.8,0.2-1.4,0.3-2.2,0.6
			c-0.7,0.2-1.5,0.5-2.4,0.9c-0.9,0.4-1.7,0.8-2.4,1.1c-0.3,0.2-0.6,0.3-0.9,0.5c-0.1,0.1-0.3,0.1-0.4,0.2c-0.1,0.1-0.2,0.1-0.3,0.2
			c-0.1,0.1-0.2,0.2-0.3,0.2c-0.1,0.1-0.2,0.2-0.3,0.2c-0.2,0.2-0.5,0.3-0.7,0.5c-0.1,0.1-0.2,0.1-0.3,0.2c0.2-0.1,0.3-0.3,0.5-0.4
			c0.1-0.1,0.2-0.2,0.4-0.3c0.1-0.1,0.2-0.1,0.3-0.2c0.2-0.1,0.3-0.2,0.4-0.2c0.8-0.5,1.5-0.9,2.4-1.3c0.9-0.5,1.7-0.8,2.1-1
			c0.2-0.1,0.3-0.2,0.5-0.2c0.1,0,0.2-0.1,0.4-0.2c0.2-0.1,0.3-0.1,0.6-0.2c0.6-0.2,1.1-0.4,1.4-0.5c0.2-0.1,0.3-0.1,0.4-0.1
			c0.1,0,0.3-0.1,0.5-0.1c0.5-0.2,1.4-0.4,2.4-0.5c0.2,0,0.5-0.1,0.7-0.1c0.2,0,0.5-0.1,0.7-0.1c1.1-0.1,2.2-0.1,3.4-0.1
			c0.1,0,0.3,0,0.4,0c0.1,0,0.3,0,0.4,0c0.1,0,0.2,0,0.2,0c0.1,0,0.2,0,0.2,0c0.2,0,0.3,0,0.5,0c0.2,0,0.3,0,0.5,0.1
			c0.1,0,0.2,0,0.2,0c0.1,0,0.2,0,0.2,0c0.2,0,0.3,0,0.5,0.1C32.4,1,32.6,1,32.7,1c0.2,0,0.3,0,0.6,0c0.1,0,0.1,0,0.2,0
			c0.1,0,0.2,0,0.3,0c0.2,0,0.4,0.1,0.7,0.1l-0.1,0c-0.1,0-0.2-0.1-0.4-0.1c-0.2,0-0.4-0.1-0.6-0.1c-0.2,0-0.4-0.1-0.7-0.1
			c-0.2,0-0.4-0.1-0.6-0.1c-0.5-0.1-0.6-0.1-0.7-0.1c-0.1,0-0.1,0-0.5-0.1c-0.1,0-0.3,0-0.4,0c-0.2,0-0.3,0-0.5,0
			c-0.6,0-0.8,0-0.7,0c0.1,0,0,0-0.2,0c-0.1,0-0.2,0-0.4,0c-0.1,0-0.3,0-0.5,0c-2.1,0-4.1,0.2-6,0.6c-0.1,0-0.3,0.1-0.4,0.1
			c-0.1,0-0.2,0.1-0.4,0.1c-0.2,0-0.4,0.1-0.7,0.2c-0.2,0-0.3,0.1-0.5,0.1c-0.1,0-0.2,0-0.3,0.1c-0.1,0-0.3,0.1-0.5,0.1
			c-0.1,0-0.2,0.1-0.2,0.1c-0.1,0-0.1,0.1-0.2,0.1c-0.6,0.2-1.2,0.5-1.8,0.7c-0.6,0.3-1.2,0.5-1.7,0.8c-0.2,0.1-0.3,0.2-0.5,0.2
			c-0.2,0.1-0.3,0.2-0.5,0.2c-0.3,0.1-0.5,0.3-0.6,0.3c-0.1,0-0.2,0.1-0.3,0.1c-0.1,0-0.1,0.1-0.2,0.1c-0.1,0-0.2,0.1-0.3,0.2
			C13.2,4.7,13,4.8,12.7,5c-0.1,0.1-0.2,0.2-0.4,0.2c-0.1,0.1-0.2,0.2-0.4,0.3c-1.3,1-2.6,2-3.7,3.2c-1.1,1.2-2.2,2.5-3.2,4.1
			c-0.1,0.1-0.2,0.3-0.3,0.4c-0.1,0.1-0.2,0.3-0.2,0.4c-0.4,0.6-0.7,1.3-1,1.9c-0.1,0.1-0.1,0.1-0.1,0.1c0,0,0-0.1,0-0.1
			c0-0.1,0.1-0.1,0.1-0.2c1.2-2.4,2.8-4.7,4.7-6.7c0.2-0.2,0.5-0.5,0.5-0.5c0-0.1,0-0.1-0.1,0c-0.1,0-0.1,0.1-0.2,0.2
			C8.3,8.4,8.1,8.5,8,8.7C7.9,8.7,7.9,8.8,7.8,8.9C7.7,9,7.6,9.1,7.5,9.3c-0.4,0.5-0.8,1-1.2,1.5c-0.3,0.4-0.6,0.8-0.9,1.2
			c-0.1,0.2-0.3,0.4-0.4,0.6c-0.1,0.2-0.2,0.4-0.3,0.5c-0.1,0.1-0.1,0.2-0.1,0.3c0,0.1-0.1,0.1-0.1,0.2c0,0.1-0.1,0.2-0.1,0.3
			c0,0,0,0.1-0.1,0.1c-0.1,0.2-0.3,0.5-0.3,0.7C3,16.3,2.3,18,1.8,19.7c0,0.1,0,0.2,0,0.3c0,0,0.1-0.1,0.1-0.3
			C2,19.5,2,19.3,2.1,19.1c0-0.1,0.1-0.2,0.1-0.3c0-0.1,0.1-0.2,0.1-0.3c0.3-0.8,0.6-1.6,1-2.4C3.4,16,3.4,15.9,3.4,16
			c0,0-0.1,0.1-0.1,0.2c0,0.1-0.1,0.3-0.2,0.4c0,0.1-0.1,0.1-0.1,0.2C3,16.9,3,17,3,17c-0.1,0.2-0.1,0.3-0.2,0.5L2.6,18
			c-0.1,0.3-0.2,0.7-0.3,1c-0.1,0.3-0.2,0.7-0.3,1c0,0.2-0.1,0.3-0.1,0.5c0,0.2-0.1,0.3-0.1,0.5c-0.2,0.7-0.3,1.4-0.4,2
			C1.1,23.8,1,24.4,1,25.1c-0.2,2.7-0.1,5.5,0.4,8c0,0.1,0.1,0.3,0.1,0.4c0,0.1,0.1,0.3,0.1,0.4c0,0.1,0.1,0.3,0.1,0.4
			c0,0.1,0.1,0.3,0.1,0.4C1.8,35,1.9,35.2,2,35.5c0,0.1,0.1,0.3,0.1,0.4c0,0.1,0.1,0.3,0.1,0.4c0.3,0.9,0.7,1.7,1.1,2.6
			c0.1,0.1,0.1,0.3,0.2,0.4c0.1,0.1,0.1,0.3,0.2,0.4c0.1,0.3,0.3,0.5,0.4,0.8c0.1,0.1,0.1,0.3,0.2,0.4c0.1,0.1,0.1,0.3,0.2,0.4
			c0.1,0.2,0.3,0.5,0.4,0.7c0.3,0.5,0.6,1,1,1.5c0.2,0.2,0.3,0.5,0.5,0.7c0.1,0.1,0.2,0.2,0.3,0.4c0.1,0.1,0.2,0.2,0.3,0.3
			c1.5,1.8,3.3,3.5,5.2,4.9c0.1,0.1,0.2,0.2,0.4,0.3c0.1,0.1,0.2,0.2,0.3,0.2c0.1,0.1,0.2,0.2,0.3,0.2c0.1,0.1,0.2,0.1,0.3,0.2
			c0.2,0.1,0.4,0.3,0.6,0.4c0.1,0.1,0.2,0.1,0.3,0.2c0.1,0.1,0.2,0.1,0.3,0.2c0.3,0.2,0.5,0.3,0.7,0.4c0.2,0.1,0.3,0.2,0.4,0.2
			c0.1,0.1,0.2,0.1,0.4,0.2c0.1,0.1,0.3,0.1,0.5,0.2c0.3,0.1,0.7,0.3,1.4,0.6c0.3,0.1,0.6,0.2,0.9,0.3c0.1,0,0.2,0.1,0.4,0.1
			c0.1,0,0.2,0.1,0.3,0.1c0.2,0.1,0.3,0.1,0.4,0.1c0.1,0,0.2,0.1,0.3,0.1c0.1,0,0.2,0.1,0.3,0.1c0.2,0,0.4,0.1,0.6,0.1
			c1.6,0.4,3.3,0.7,5,0.7c0.4,0,0.8,0,1.1,0c0.2,0,0.3,0,0.4,0c0.1,0,0.3,0,0.4,0c0.2,0,0.5,0,0.6,0c0.2,0,0.3,0,0.5,0
			c0.1,0,0.3,0,0.4,0c0.1,0,0.2,0,0.3,0c0.2,0,0.4-0.1,0.7-0.1c-1.9,0.2-3.9,0.1-5.8-0.1l0.1,0c0.1,0,0.2,0,0.2,0
			c0.2,0,0.3,0.1,0.2,0.1c0,0-0.1,0-0.2,0c-0.1,0-0.3,0-0.4,0c-0.9-0.1-1.8-0.3-2.7-0.5c-1.1-0.3-2.1-0.6-3-0.9
			c-0.9-0.3-1.6-0.7-2.2-1c-0.2-0.1-0.4-0.2-0.6-0.3c-0.2-0.1-0.5-0.3-0.8-0.4c-0.3-0.1-0.6-0.3-0.9-0.5c-0.2-0.1-0.3-0.2-0.5-0.3
			c-0.2-0.1-0.3-0.2-0.5-0.3c-1.6-1-3.1-2.2-4.4-3.5C8.4,46,7.6,45,6.9,44.1c0.5,0.6,1,1.1,1.5,1.6c0.2,0.2,0.5,0.5,0.9,0.9
			c0.5,0.5,1.2,1.1,1.7,1.6c1.3,1.1,2.7,2.1,4.3,2.9c1.6,0.9,3.3,1.6,5,2.1c1.7,0.5,3.5,0.9,5.2,1.1c0.1,0,0.3,0,0.5,0
			c0.1,0,0.3,0,0.4,0c0.1,0,0.3,0,0.4,0c0.2,0,0.3,0,0.3,0c-0.1,0-0.2,0-0.3,0c-0.1,0-0.3,0-0.5-0.1c-0.2,0-0.4-0.1-0.7-0.1
			c-0.1,0-0.3,0-0.5-0.1c-0.1,0-0.2,0-0.3,0c-0.1,0-0.2,0-0.3,0c-0.2,0-0.3,0-0.5-0.1c-0.1,0-0.3,0-0.4-0.1c-0.1,0-0.2,0-0.3-0.1
			c-0.1,0-0.1,0-0.2,0c-0.2-0.1-0.2-0.1,0-0.1c0.1,0,0.3,0,0.5,0.1c0.1,0,0.3,0,0.4,0.1c0.1,0,0.3,0,0.4,0.1
			c1.1,0.2,2.2,0.3,3.3,0.3c0.6,0,1.1,0,1.7,0c0.6,0,1.2-0.1,1.8-0.1c0.3,0,0.5-0.1,0.8-0.1c0.1,0,0.3,0,0.4-0.1
			c0.1,0,0.3,0,0.4-0.1c0.5-0.1,1-0.2,1.6-0.3c1-0.2,2-0.5,2.9-0.8c0.2-0.1,0.4-0.1,0.6-0.2c0.2-0.1,0.5-0.2,0.7-0.3
			c1-0.5,1.9-1,2.8-1.5c0.9-0.6,1.7-1.2,2.6-1.8c-0.1,0-0.2,0-0.4,0.1c-0.3,0.1-0.7,0.4-1.3,0.8c-0.2,0.1-0.4,0.2-0.5,0.3
			c-0.2,0.1-0.3,0.2-0.5,0.2c-0.3,0.1-0.6,0.3-0.9,0.4c0,0,0.3-0.2,0.4-0.3c1-0.5,1.8-1.1,2.6-1.6c0.5-0.3,1-0.7,1.6-1.2
			c0.1-0.1,0.3-0.2,0.4-0.3c0.1-0.1,0.3-0.2,0.4-0.4c0.2-0.2,0.4-0.4,0.5-0.5c0.1-0.1-0.1,0-0.6,0.4c-0.8,0.7-1.7,1.4-2.7,2
			c-0.2,0.2-0.5,0.3-0.7,0.5c-0.1,0.1-0.2,0.2-0.4,0.2c-0.1,0-0.1,0.1-0.2,0.1c-0.1,0-0.1,0.1-0.2,0.1c-0.1,0.1-0.3,0.1-0.4,0.2
			c-0.1,0.1-0.3,0.1-0.4,0.2c-0.1,0.1-0.3,0.1-0.4,0.2c-0.1,0.1-0.3,0.1-0.4,0.2c-1,0.5-1.9,0.9-2.9,1.2c-1,0.3-2,0.6-3,0.9
			c-2,0.4-4.1,0.7-6.2,0.6c-1.9-0.1-3.1-0.3-3.6-0.3c-0.4-0.1-0.1-0.1,1,0c0.1,0,0.1,0,0.2,0c0.1,0,0.3,0,0.5,0c0.1,0,0.2,0,0.3,0
			c0.1,0,0.2,0,0.3,0c0.1,0,0.2,0,0.3,0c0.1,0,0.2,0,0.4,0c0.1,0,0.3,0,0.4,0c0.1,0,0.3,0,0.4,0c0.1,0,0.3,0,0.4,0l0.4,0l0.4,0
			c0.1,0,0.3,0,0.4,0c0.3,0,0.5,0,0.8-0.1l0.4,0l0.4,0c0.3,0,0.5-0.1,0.8-0.1c0.1,0,0.3,0,0.4-0.1c0.1,0,0.3,0,0.4-0.1l0.4-0.1
			l0.2,0l0.2,0l0.4-0.1l0.4-0.1c0.3-0.1,0.5-0.1,0.8-0.2c0.1,0,0.3-0.1,0.4-0.1c0.1,0,0.3-0.1,0.4-0.1l0.4-0.1l0.2-0.1l0.2-0.1
			l0.4-0.1l0.4-0.1c1-0.4,2-0.8,2.9-1.3c0.6-0.3,1.1-0.6,1.4-0.8c0.2-0.1,0.3-0.2,0.5-0.3c0.1-0.1,0.3-0.2,0.4-0.3
			c0.1-0.1,0.1-0.1,0.1-0.1c0,0-0.1,0-0.1,0.1c-0.1,0-0.2,0.1-0.3,0.2c-0.6,0.4-1.2,0.8-1.9,1.1c-0.7,0.4-1.4,0.7-2.2,1
			c-0.8,0.4-1.7,0.7-2.5,0.9c-0.1,0-0.2,0-0.3,0.1c-0.1,0-0.2,0-0.3,0.1c-0.2,0-0.3,0.1-0.5,0.1c-0.3,0.1-0.5,0.1-0.5,0.1
			c0.4-0.1,0.8-0.2,1.2-0.3l0.4-0.1c0.1,0,0.3-0.1,0.4-0.1l0.2-0.1l0.2-0.1c0.1,0,0.3-0.1,0.4-0.1c0.6-0.2,1.1-0.4,1.7-0.7
			c0.5-0.2,1.1-0.5,1.6-0.8c0.1-0.1,0.3-0.1,0.4-0.2l0.2-0.1l0.2-0.1c0.1-0.1,0.3-0.2,0.4-0.2l0.4-0.2c0.8-0.5,1.5-1,2.1-1.5
			c0.2-0.1,0.3-0.3,0.3-0.3c0,0-0.2,0.2-0.4,0.3c-3,2.3-6.6,4-10.4,4.8c-1.8,0.4-3.7,0.6-5.6,0.5c-1.9,0-3.7-0.3-5.5-0.7
			c-0.1,0-0.3-0.1-0.4-0.1c-0.1,0-0.3-0.1-0.4-0.1c-0.3-0.1-0.5-0.2-0.8-0.2c-0.5-0.2-1.1-0.3-1.6-0.6c-0.3-0.1-0.5-0.2-0.8-0.3
			c-0.1-0.1-0.3-0.1-0.4-0.2l-0.2-0.1c-0.1,0-0.1-0.1-0.2-0.1c-0.1-0.1-0.3-0.1-0.4-0.2c-0.1-0.1-0.2-0.1-0.4-0.2
			c-0.1,0-0.1-0.1-0.2-0.1c-0.1,0-0.1-0.1-0.2-0.1c-0.1-0.1-0.2-0.1-0.4-0.2c-0.9-0.5-1.8-1-2.6-1.6c-0.8-0.6-1.6-1.2-2.4-1.9
			c-0.4-0.4-0.8-0.8-1.2-1.2c-0.1-0.1-0.2-0.2-0.3-0.3c0-0.1-0.1-0.1-0.1-0.1c0-0.1-0.1-0.1-0.1-0.2c-0.1-0.1-0.2-0.2-0.3-0.3
			c-0.1-0.1-0.2-0.2-0.3-0.3C8,43,7.4,42.2,6.9,41.4c-0.8-1.2-1.6-2.6-2.2-4.1c-0.6-1.4-1-2.8-1.3-4.2c0-0.1-0.1-0.3-0.1-0.4
			c0-0.2-0.1-0.3-0.1-0.4c-0.1-0.7-0.2-1.5-0.3-2.3c-0.1-0.8-0.1-1.6-0.1-2.4c0-0.7,0-1.4,0.1-2c0.1-0.7,0.1-1.3,0.2-1.9
			c0-0.2,0.1-0.4,0.1-0.6c0-0.2,0.1-0.4,0.2-0.7c0,0.2-0.1,0.3-0.1,0.5c0,0.1,0,0.1,0,0.2c0,0.1,0,0.1,0,0.2c0,0.1,0,0.3-0.1,0.4
			C3,23.7,3,23.9,3,24c0,0.1,0,0.1,0,0.2c0,0.1,0,0.1,0,0.2c0,0.1,0,0.3,0,0.4c0,0.1,0,0.3,0,0.4c0,0.1,0,0.3,0,0.4l0,0
			C2.9,25,3,24.4,3.1,23.8c0.1-0.6,0.2-1.3,0.4-1.9c0-0.1,0.1-0.3,0.1-0.4c0-0.1,0.1-0.3,0.1-0.4c0.1-0.3,0.1-0.5,0.2-0.8
			c0-0.1,0.1-0.2,0.1-0.3C4,19.9,4,19.8,4,19.8c0-0.1,0-0.1,0,0.1c0,0.2-0.1,0.4-0.2,0.7c-0.1,0.3-0.1,0.5-0.2,0.7
			c-0.2,0.7-0.4,1.5-0.5,2.3c-0.1,0.8-0.2,1.5-0.3,2.2c0,0.2,0,0.3-0.1,0.4c0,0.1,0,0.2,0,0.3l0,0c0,0.1,0,0.2,0,0.3
			c0,0.1,0,0.2,0,0.3c0,0.2,0,0.4,0,0.6c0,0.7,0.1,1.5,0.2,2.2c0.1,0.7,0.2,1.4,0.3,1.9c0.1,0.5,0.3,1.1,0.4,1.8
			C3.8,34.3,4,35,4.3,35.8c0,0.1,0.1,0.2,0.1,0.3c0.1,0.2,0.2,0.5,0.2,0.7c0.1,0.2,0.2,0.4,0.2,0.6C4.9,37.6,5,37.8,5.1,38
			c0,0.1,0.1,0.2,0.1,0.3c0,0.1,0.1,0.2,0.1,0.3C5.8,39.3,6.2,40,6.8,41c-0.1-0.2-0.3-0.5-0.4-0.7c-0.1-0.1-0.1-0.2-0.2-0.4
			c-0.1-0.1-0.1-0.2-0.2-0.3c0-0.1-0.1-0.1-0.1-0.2c0,0,0-0.1,0-0.1c0,0,0,0,0,0c0,0,0,0,0.1,0.1c0.6,1.1,1.4,2.3,2.2,3.3
			c0.1,0.1,0.1,0.1,0.2,0.2c0,0,0-0.1-0.1-0.1c-0.2-0.3-0.4-0.6-0.6-0.9c-0.1-0.1-0.2-0.3-0.3-0.4c-0.1-0.1-0.1-0.2-0.2-0.3
			c-0.2-0.4-0.5-0.9-0.8-1.5c-0.3-0.6-0.7-1.3-1-2.1c-0.1-0.1-0.1-0.2-0.2-0.4c0-0.1-0.1-0.2-0.1-0.3c0-0.1-0.1-0.2-0.1-0.3
			c0-0.1,0-0.1,0-0.1c0.6,1.4,1.3,2.8,2.1,4.2c0.5,0.9,1,1.5,1.4,2c0,0.1,0.1,0.1,0.1,0.2c0,0.1,0.1,0.1,0.1,0.2
			c0.1,0.1,0.2,0.2,0.3,0.3c0.1,0.1,0.2,0.2,0.3,0.3c0,0,0.1,0.1,0.1,0.1c0,0,0.1,0.1,0.1,0.1C9.5,44,9.6,44,9.7,44.1
			c0.1,0.1,0.2,0.2,0.3,0.3c0,0,0.1,0.1,0.1,0.1c0,0.1,0.1,0.1,0.1,0.2c0.1,0.1,0.2,0.2,0.3,0.3c0.4,0.4,1,1,1.7,1.6l0,0
			c0.5,0.4,1.1,0.8,1.9,1.3c0.5,0.4,1.1,0.7,1.6,1c0.6,0.3,1.1,0.6,1.7,0.9c0.6,0.3,1.2,0.5,1.8,0.7c0.3,0.1,0.6,0.2,0.9,0.3
			c0.2,0.1,0.3,0.1,0.5,0.2c0.2,0.1,0.3,0.1,0.5,0.1l0.2,0.1l0.2,0.1l0.4,0.1c0.3,0.1,0.5,0.1,0.8,0.2c0.5,0.1,1.1,0.2,1.6,0.3
			c0.4,0.1,0.4,0,0,0c-1.6-0.2-3.2-0.6-4.7-1.2c-1.5-0.6-3-1.3-4.5-2.2c-1-0.6-1.8-1.2-3-2.2c-1.2-1-2-1.9-2.5-2.5
			c-0.1-0.2-0.6-0.8-0.9-1.2c-0.1-0.2-0.3-0.4-0.4-0.5c0-0.1,0-0.1,0-0.1c0,0,0.1,0.1,0.2,0.2c0.1,0.1,0.2,0.2,0.3,0.3
			c0.7,0.9,1.4,1.7,2.2,2.4c0.7,0.6,1,0.9,0.7,0.6c-0.2-0.2-0.5-0.5-0.8-0.8c-0.4-0.4-0.8-0.8-1.2-1.3l-0.1-0.2l-0.1-0.2
			c-0.1-0.1-0.2-0.2-0.3-0.3c-0.2-0.2-0.4-0.4-0.5-0.7c-0.1-0.1-0.1-0.2-0.2-0.2c-0.1-0.1-0.1-0.2-0.2-0.2c-0.1-0.1-0.1-0.2-0.2-0.2
			c0-0.1-0.1-0.1-0.1-0.2C8,41.3,7.9,41.2,8,41.2c0,0.1,0.1,0.2,0.2,0.3c0.1,0.1,0.2,0.2,0.3,0.3c0.1,0.1,0.2,0.2,0.3,0.3
			c0.1,0.1,0.2,0.2,0.3,0.3c0.1,0.1,0.2,0.2,0.3,0.3c0.1,0.1,0.2,0.2,0.3,0.3c0.1,0.1,0.2,0.2,0.3,0.3c0.2,0.2,0.3,0.4,0.5,0.6
			c0.5,0.5,1.1,1.1,1.7,1.7c0.5,0.5,1.1,1,1.7,1.4c0.1,0,0.2,0.2,0.3,0.2c0.1,0,0.1,0.1,0.1,0c-0.2-0.2-0.5-0.4-0.7-0.6
			c-0.1-0.1-0.1-0.1,0.1,0c0,0,0.1,0.1,0.2,0.1c0.1,0.1,0.2,0.1,0.2,0.2c0.1,0.1,0.2,0.1,0.3,0.2c0.1,0.1,0.2,0.1,0.2,0.2
			c0.2,0.2,0.4,0.3,0.7,0.5c0.1,0.1,0.2,0.1,0.3,0.2c0.1,0.1,0.2,0.1,0.3,0.2c0.2,0.1,0.3,0.2,0.4,0.3c0.1,0.1,0.3,0.2,0.4,0.3
			c0.1,0.1,0.3,0.2,0.5,0.3c0.2,0.1,0.3,0.2,0.4,0.2c0.1,0,0.1,0,0.2,0.1c0.1,0,0.2,0.1,0.4,0.2c0.2,0.1,0.4,0.2,0.6,0.3
			c0.1,0,0.3,0.1,0.4,0.2c0.1,0,0.1,0.1,0.2,0.1c0.1,0,0.2,0.1,0.2,0.1c0.1,0,0.2,0.1,0.2,0.1c0.1,0,0.2,0.1,0.2,0.1
			c0.2,0.1,0.3,0.1,0.4,0.2c0.1,0,0.1,0,0.1,0c-0.3-0.1,0.1,0.1,0.3,0.2c0.1,0.1,0,0-0.2,0c-0.2-0.1-0.6-0.2-1.1-0.4
			c-0.5-0.2-1.1-0.4-1.5-0.7c-1-0.5-1.7-0.9-2.3-1.2c0.1,0.1,0.2,0.1,0.4,0.2c0.1,0.1,0.3,0.2,0.4,0.2c0.3,0.2,0.6,0.3,0.9,0.5
			c0.1,0,0.1,0.1,0.2,0.1c0.1,0,0.1,0.1,0.2,0.1c0.1,0.1,0.2,0.1,0.3,0.2c0.2,0.1,0.4,0.2,0.6,0.3c0.2,0.1,0.3,0.2,0.5,0.2
			c0.1,0.1,0.2,0.1,0.3,0.1c0.2,0.1,0.5,0.2,0.9,0.3c0.7,0.2,1.3,0.4,1.9,0.6c0.8,0.2,1.6,0.3,2.2,0.4c0.2,0,0.4,0,0.6,0.1
			c0.2,0,0.4,0,0.5,0c0.3,0,0.5,0,0.6,0c0,0,0,0,0.1-0.1c0,0,0.2,0,0.5,0c0.1,0,0.3,0,0.6,0c0.2,0,0.5,0,0.9,0c0.2,0,0.4,0,0.6,0
			c0.2,0,0.4,0,0.6,0c0.9,0,1.7-0.2,2.5-0.3c0.7-0.1,1.4-0.3,2-0.5c1.1-0.3,1.8-0.6,2.1-0.8c0.1-0.1,0.2-0.1,0.1-0.1
			c0,0-0.1,0-0.2,0c-0.1,0-0.2,0-0.4,0.1c-0.2,0-0.3,0.1-0.3,0.1c0,0,0,0,0.1,0c0.1,0,0.3-0.1,0.5-0.2c0.1,0,0.3-0.1,0.5-0.2
			c0.2-0.1,0.4-0.1,0.6-0.2c0.8-0.3,1.5-0.7,2.3-1C40.4,47.8,41.4,47.1,42.1,46.7L42.1,46.7z M8.3,12.7l-0.1,0.1
			C8.1,12.9,8.1,13,8,13.1c-0.1,0.1-0.1,0.2-0.2,0.3l0.1-0.1C8,13.1,8.1,13,8.1,12.9L8.3,12.7z M15.4,6.1c-0.2,0.1-0.3,0.2-0.5,0.3
			c-0.1,0-0.2,0.1-0.2,0.1c-0.1,0-0.1,0.1-0.2,0.1c-0.1,0.1-0.2,0.1-0.3,0.2c0,0,0,0,0.1-0.1c0.1-0.1,0.2-0.1,0.3-0.2
			c0.1-0.1,0.2-0.1,0.3-0.2c0.2-0.1,0.4-0.3,0.7-0.4c0.1-0.1,0.2-0.1,0.3-0.2c0.1-0.1,0.2-0.1,0.3-0.1c0.2-0.1,0.3-0.2,0.4-0.2
			c0.4-0.2,0.2-0.1-0.4,0.3c-0.2,0.1-0.5,0.3-0.7,0.4c-0.1,0.1-0.2,0.1-0.4,0.2c-0.1,0.1-0.2,0.1-0.4,0.2c-0.1,0.1-0.3,0.2-0.4,0.3
			c-0.1,0-0.1,0.1-0.2,0.1c-0.1,0-0.1,0.1-0.2,0.1c0.1,0,0.1-0.1,0.2-0.1c0.1-0.1,0.2-0.1,0.3-0.2c0.1-0.1,0.2-0.1,0.3-0.2
			c0.1-0.1,0.2-0.1,0.2-0.2C15.2,6.2,15.3,6.2,15.4,6.1z M7.1,16.6c-0.2,0.5-0.4,0.9-0.5,1.5c-0.2,0.6-0.5,1.2-0.7,1.8
			c-0.2,0.6-0.4,1.2-0.5,1.9c-0.3,1-0.5,1.9-0.6,2.9c-0.1,0.5-0.1,0.7-0.1,0.5c0,0,0-0.1,0-0.1c0-0.1,0-0.1,0-0.2c0-0.1,0-0.2,0-0.3
			c0-0.1,0-0.2,0-0.4c0-0.3,0.1-0.7,0.2-1.2c0.2-0.9,0.4-1.9,0.7-2.8c0-0.1,0.1-0.3,0.1-0.4c0-0.1,0.1-0.2,0.1-0.4l0.1-0.2l0.1-0.2
			C6,19,6,18.9,6.1,18.7c0.1-0.3,0.2-0.5,0.3-0.8c-0.1,0.3-0.2,0.5-0.3,0.8C6.4,18,6.7,17.3,7.1,16.6z M27.9,3.8
			C28,3.8,28,3.8,27.9,3.8c0,0-0.1,0-0.2,0c-0.1,0-0.2,0-0.3,0c-0.1,0-0.3,0-0.4,0c-0.1,0-0.3,0-0.4,0c-0.3,0-0.5,0-0.8,0.1
			c-0.1,0-0.3,0-0.4,0c-0.1,0-0.3,0-0.4,0C24.8,4,24.5,4,24.3,4c-0.1,0-0.3,0-0.4,0.1l-0.4,0.1c-0.1,0-0.3,0.1-0.4,0.1
			c-0.1,0-0.3,0.1-0.4,0.1c-0.3,0.1-0.5,0.1-0.8,0.2c-0.1,0-0.3,0.1-0.4,0.1c-0.1,0-0.3,0.1-0.4,0.1c-0.1,0-0.3,0.1-0.4,0.1
			c-0.1,0-0.2,0.1-0.3,0.1c-0.4,0.2-0.9,0.4-1.6,0.7c-0.1,0.1-0.2,0.1-0.4,0.2C18.4,5.9,18.2,6,18.1,6c-0.2,0.1-0.5,0.2-0.7,0.3
			c-1.9,1-3.8,2.2-5.4,3.6c-0.1,0.1-0.3,0.2-0.4,0.3c-0.1,0.1-0.2,0.2-0.4,0.3c0.1-0.1,0.2-0.2,0.3-0.4c0.5-0.5,1-1,1.5-1.4
			c2.1-1.6,4.4-3,6.9-3.9c0.8-0.3,1.6-0.5,2.3-0.7c0.1,0,0.2,0,0.3-0.1c0.1,0,0.2,0,0.3-0.1c0.2,0,0.4-0.1,0.5-0.1
			c0.7-0.1,1.3-0.2,1.9-0.3c0.6-0.1,1.2-0.1,1.7-0.1c0.1,0,0.3,0,0.4,0c0.1,0,0.3,0,0.4,0c0.3,0,0.6,0,0.8,0c0.6,0,1.2,0.1,1.8,0.1
			c0.2,0,0.3,0,0.5,0.1c0.1,0,0.1,0,0.2,0c0.1,0,0.1,0,0.2,0c0.1,0,0.2,0,0.3,0.1c0.1,0,0.2,0,0.2,0.1c0.1,0,0.2,0.1,0.3,0.1
			c0.5,0.2,0.7,0.2,0.4,0.2c-0.1,0-0.2,0-0.4-0.1c-0.2,0-0.3,0-0.6-0.1c-0.5-0.1-1.1-0.1-1.9-0.2C29,4,28.2,4,27.4,4
			c-0.1,0-0.3,0-0.4,0c-0.1,0-0.3,0-0.4,0c-0.1,0-0.2,0-0.3,0c-0.1,0-0.2,0-0.3,0c-0.3,0-0.4,0-0.2,0c0.1,0,0.3-0.1,0.6-0.1
			c0.1,0,0.3,0,0.5,0c0.2,0,0.4,0,0.6,0h0c0,0,0.1,0,0.1,0c0,0,0.1,0,0.1,0C27.8,3.9,27.9,3.8,27.9,3.8z M4.4,20.8
			c-0.1,0.1,0-0.1,0.2-0.7c0-0.1,0.1-0.3,0.1-0.4c0-0.1,0-0.1,0.1-0.2c0-0.1,0-0.1,0.1-0.2c0-0.1,0.1-0.3,0.1-0.4
			c0-0.1,0.1-0.3,0.1-0.4c0-0.1,0.1-0.2,0.1-0.4c0.1-0.1,0.1-0.2,0.2-0.4c0.1-0.1,0.1-0.2,0.2-0.3c0.1-0.1,0.1-0.2,0.2-0.3
			C6,16.5,6.3,15.9,6.8,15c0.2-0.4,0.6-1,0.9-1.4c0.3-0.4,0.6-0.8,0.9-1.2c0.1-0.1,0.1-0.1,0.2-0.2c0.1-0.1,0.1-0.1,0.2-0.2
			c0.1-0.1,0.2-0.3,0.3-0.4c0.5-0.6,0.9-1,1.2-1.3c0.3-0.3,0.5-0.5,0.7-0.6c0.1,0,0.2-0.2,0.4-0.4c0.1-0.1,0.2-0.2,0.3-0.3
			C12,9,12,8.9,12.1,8.9c0.1,0,0.1-0.1,0.2-0.1c0.4-0.3,0.6-0.5,0.4-0.3c-0.1,0.1-0.7,0.6-1.1,1c-0.1,0.1-0.2,0.2-0.3,0.2
			c0,0-0.1,0.1-0.1,0.1c0,0-0.1,0.1-0.1,0.1C11,9.9,11,10,10.9,10c-0.1,0.1-0.2,0.2-0.3,0.3c-0.1,0.1-0.2,0.2-0.3,0.3
			C9.9,11,9.5,11.5,9.1,12c-1.5,1.9-2.8,3.9-3.7,6c-0.4,0.8-0.7,1.8-1,2.6C4.4,20.7,4.4,20.8,4.4,20.8z M19.3,4.5
			c-0.2,0.1-0.5,0.2-0.7,0.3c-1.4,0.6-2.8,1.3-4.1,2.2c-0.1,0.1-0.2,0.2-0.3,0.2c-0.1,0.1-0.2,0.1-0.3,0.2c-0.2,0.1-0.4,0.3-0.5,0.4
			c-0.3,0.2-0.6,0.4-0.8,0.6c-0.2,0.2-0.4,0.3-0.6,0.4c-0.2,0.1-0.3,0.2-0.4,0.3c0,0,0.1-0.1,0.1-0.1c0.1-0.1,0.2-0.2,0.3-0.3
			c0.1-0.1,0.2-0.2,0.3-0.2c0.1-0.1,0.1-0.1,0.2-0.2c0.1,0,0.1-0.1,0.2-0.1c0.1-0.1,0.2-0.2,0.4-0.3c0.5-0.4,1-0.7,1.5-1.1
			c0.6-0.4,1.1-0.7,1.8-1.1c0.2-0.1,0.4-0.2,0.6-0.3c0.2-0.1,0.4-0.2,0.5-0.3c0.2-0.1,0.3-0.1,0.5-0.2c0.2-0.1,0.3-0.1,0.5-0.2
			c0.5-0.2,1.2-0.5,1.8-0.7c0.5-0.2,1-0.3,1.6-0.5c0.1,0,0.1,0,0.2-0.1c0.1,0,0.1,0,0.2-0.1c0.1,0,0.3-0.1,0.4-0.1
			c0.3-0.1,0.6-0.1,0.9-0.2c-0.7,0.2-1.5,0.3-2.2,0.5C20.6,4,19.9,4.2,19.3,4.5z M7.5,15.5c-0.1,0.2-0.2,0.3-0.3,0.5
			c-0.1,0.2-0.2,0.3-0.3,0.5c-0.1,0.1-0.1,0.2-0.2,0.3c-0.1,0.1-0.1,0.2-0.2,0.3c0,0.1-0.1,0.1-0.1,0.2c0.2-0.6,0.7-1.5,1.3-2.5
			c0.8-1.4,1.9-2.7,3-3.9c0,0,0,0-0.1,0.2c0,0.1-0.1,0.1-0.2,0.3c0,0.1-0.1,0.1-0.2,0.2c-0.1,0.1-0.1,0.2-0.2,0.3
			C9.1,13.1,8.2,14.3,7.5,15.5z M5,14.2c-0.1,0.1-0.1,0.1-0.1,0.2c0.5-0.9,0.9-1.6,1.4-2.3c0.5-0.7,0.9-1.3,1.4-1.8
			C7.8,10.1,7.9,10,8,9.9c0.1-0.1,0.2-0.2,0.2-0.2c0.1-0.1,0.2-0.2,0.2-0.2c0,0,0,0.1-0.1,0.2C8.2,9.8,8.2,9.8,8.1,9.9
			C8,10,7.9,10.2,7.8,10.3c-0.2,0.2-0.4,0.4-0.6,0.7c-0.4,0.5-0.8,1-1.2,1.6C5.7,13.1,5.3,13.7,5,14.2z M8.7,46.4
			c0,0-0.1-0.1-0.2-0.2c-0.1-0.1-0.2-0.3-0.4-0.4c-0.7-0.8-1.3-1.5-1.8-2.2c-0.5-0.7-1-1.4-1.4-2.1c0-0.1,0,0,0,0
			c0,0,0.1,0.1,0.1,0.2c0.1,0.1,0.2,0.2,0.2,0.4c1,1.6,2.1,3,3.3,4.2C8.7,46.3,8.7,46.4,8.7,46.4z M25.4,50.9c-0.1,0-0.2,0-0.3,0
			c-0.1,0-0.2,0-0.2,0c0,0,0.2,0,0.3,0c1.6,0.2,3.2,0.2,4.8,0.1c0.1,0,0.2,0,0.2,0c-0.1,0-0.2,0-0.3,0.1c-0.8,0.1-1.6,0.1-2.7,0.1
			C26.8,51,26.1,51,25.4,50.9z M31.5,3c0.1,0,0.1,0,0.2,0C31.6,3.1,31.5,3.1,31.5,3c-0.9-0.1-1.7-0.1-2.4-0.2c-0.7,0-1.4,0-2.1,0
			c-0.2,0-0.3,0-0.5,0C28.2,2.7,29.9,2.8,31.5,3z M4.8,40.8c-0.1-0.2-0.2-0.4-0.3-0.6c-0.1-0.2-0.2-0.4-0.3-0.6
			c-0.1-0.2-0.2-0.5-0.2-0.5c0,0,0.1,0.2,0.2,0.4c0.4,0.7,0.8,1.5,1.2,2.2c0.5,0.7,1,1.5,1.5,2.2c-0.1-0.1-0.2-0.2-0.3-0.3
			c-0.1-0.1-0.2-0.2-0.3-0.4C6.2,43,6.1,42.9,6,42.8c-0.1-0.1-0.2-0.3-0.3-0.4C5.4,41.8,5.1,41.3,4.8,40.8z M6.2,34.2
			c0-0.1-0.1-0.3-0.1-0.4c0-0.1-0.1-0.3-0.1-0.4c0,0,0,0,0,0.1c0,0.1,0.1,0.2,0.1,0.4C6.2,33.9,6.2,34.1,6.2,34.2
			c0.1,0.2,0.2,0.4,0.2,0.5c0,0.1,0.1,0.3,0.1,0.4c0,0.1,0,0,0,0C6.4,34.8,6.3,34.5,6.2,34.2z M21.8,52.1c0.2,0,0.3,0.1,0.5,0.1
			c0.2,0,0.3,0.1,0.5,0.1c0,0,0.1,0,0.2,0.1c0.1,0,0.2,0,0.1,0c-0.1,0-0.2,0-0.3,0c-0.1,0-0.3-0.1-0.5-0.1
			C22.2,52.2,22,52.1,21.8,52.1z M28.4,1.2c-0.1,0-0.2,0-0.3,0c-0.1,0-0.2,0-0.2,0c-0.1,0-0.2,0-0.1,0C27.8,1.2,28.1,1.2,28.4,1.2
			l0.2,0C28.5,1.2,28.5,1.2,28.4,1.2z"/>
		<path class="st0" d="M31.1,50.5c-0.1,0-0.2,0-0.2-0.1C30.9,50.4,31,50.4,31.1,50.5c0.1-0.1,0.2-0.1,0.3-0.1c0.1,0,0.3,0,0.4-0.1
			c1.4-0.2,2.8-0.5,4.1-1c1.4-0.5,2.7-1.1,4-1.9c0.1,0,0.1-0.1,0.2-0.1c0.1,0,0.1-0.1,0.2-0.1l0.3-0.2l0.3-0.2l0.2-0.1l0.2-0.1
			l0.3-0.2l0.3-0.2L42,46l0.1-0.1l0.3-0.2l0.3-0.2c0.8-0.6,1.5-1.3,2.2-2c1.4-1.4,2.6-3,3.5-4.7c0.1-0.1,0.1-0.2,0.2-0.3
			c0-0.1,0.1-0.2,0.1-0.2c0-0.1,0.1-0.1,0.1-0.2c0-0.1,0.1-0.1,0.1-0.2c0.1-0.1,0.1-0.2,0.2-0.3c0-0.1,0.1-0.1,0.1-0.2
			c0,0,0,0.1-0.1,0.2c0,0.1-0.1,0.2-0.1,0.3c0,0.1-0.1,0.1-0.1,0.2c0,0.1-0.1,0.1-0.1,0.2c-0.4,0.8-0.9,1.6-1.4,2.3
			c-0.5,0.7-1,1.4-1.6,2.1c-2.5,2.9-5.7,5.2-9.3,6.6c-2.2,0.8-4.4,1.4-6.7,1.5l-0.4,0l-0.4,0l-0.2,0l-0.2,0l-0.4,0l-0.4,0l-0.2,0
			l-0.2,0l-0.4,0l-0.4,0c-0.1,0-0.3,0-0.4,0c-0.1,0-0.3,0-0.4,0c-0.3,0-0.5-0.1-0.8-0.1c-0.3,0-0.5-0.1-0.8-0.1
			c-0.1,0-0.3-0.1-0.4-0.1l-0.2,0l-0.2,0c-0.7-0.1-1.2-0.3-1-0.3c0.1,0,0.2,0,0.3,0.1c0.1,0,0.3,0,0.4,0.1c0.2,0,0.4,0.1,0.7,0.1
			c0.1,0,0.3,0.1,0.5,0.1c0.2,0,0.4,0.1,0.6,0.1c0.1,0,0.3,0,0.4,0.1c0.1,0,0.3,0,0.4,0C27.2,50.7,29,50.7,31.1,50.5z"/>
		<path class="st0" d="M20.9,51.5c0.1,0,0.2,0.1,0.3,0.1c0.1,0,0.2,0.1,0.3,0.1c0.1,0,0.2,0.1,0.3,0.1c0.1,0,0.2,0.1,0.3,0.1
			c0.5,0.1,0.9,0.2,1.5,0.3c0.8,0.1,1.7,0.3,2.5,0.3c0.4,0,0.7,0.1,0.9,0.1c0.2,0,0.3,0,0.2,0.1c-0.9,0-1.9-0.1-2.9-0.2
			c-1-0.1-2-0.3-2.9-0.6c-0.1,0-0.2,0-0.3-0.1c-0.1,0-0.2-0.1-0.3-0.1c-0.2-0.1-0.4-0.1-0.6-0.2c-0.5-0.2-0.9-0.3-1.4-0.5
			c-0.2-0.1-0.4-0.2-0.7-0.3c-0.1,0-0.2-0.1-0.3-0.1l-0.2-0.1l-0.2-0.1c-0.9-0.4-1.7-0.8-2.5-1.3c-1-0.6-1.9-1.3-2.8-2.1
			c0.3,0.2,0.9,0.6,1.6,1c0.1,0.1,0.3,0.2,0.5,0.3c0.1,0.1,0.2,0.1,0.4,0.2c0.1,0.1,0.3,0.2,0.4,0.3c0.5,0.3,0.5,0.3,0.4,0.3
			c0,0,0.1,0.1,0.2,0.1c0.8,0.5,1.7,0.9,2.6,1.3C19.1,50.9,20,51.2,20.9,51.5L20.9,51.5z"/>
		<path class="st0" d="M42.1,46.7c0.7-0.5,1.3-0.9,1.8-1.3c0.5-0.4,1-0.8,1.5-1.3c0.6-0.5,0.8-0.8,1-0.9c0.1,0,0,0-0.1,0.1
			c-0.1,0.1-0.3,0.3-0.5,0.6c-0.4,0.5-0.9,0.9-1.3,1.3c-0.1,0-0.1,0.1-0.2,0.1c-0.1,0-0.1,0.1-0.2,0.1c-0.1,0.1-0.2,0.2-0.3,0.3
			c-0.2,0.2-0.4,0.4-0.6,0.5c-0.6,0.5-1.1,0.9-1.6,1.2c-0.1,0.1-0.2,0.1-0.3,0.2c-0.1,0.1-0.2,0.1-0.3,0.2c-0.2,0.1-0.3,0.2-0.4,0.2
			c-0.3,0.1-0.5,0.2-1,0.4c-0.4,0.2-0.6,0.2-0.4,0.1c0,0,0.1-0.1,0.2-0.1c0,0,0.1,0,0.1-0.1c0,0,0.1-0.1,0.1-0.1
			c0.1-0.1,0.2-0.1,0.4-0.2c0.1-0.1,0.3-0.2,0.5-0.3c0.1-0.1,0.2-0.1,0.3-0.2c0.1-0.1,0.2-0.1,0.3-0.2c0.2-0.1,0.3-0.2,0.4-0.3
			C41.7,47,41.9,46.9,42.1,46.7C42.2,46.7,42.1,46.7,42.1,46.7z"/>
		<path class="st0" d="M0.9,20.5c0.2-0.8,0.4-1.7,0.8-2.6C2,17,2.4,16.1,2.8,15.3c0.5-1,1-1.9,1.6-2.8c0.1-0.1,0.2-0.3,0.3-0.4
			c0.1-0.1,0.2-0.3,0.3-0.4c0.1-0.1,0.2-0.3,0.3-0.4c0.1-0.1,0.2-0.2,0.2-0.3c0.3-0.4,0.4-0.4,0.6-0.8c0.4-0.4,0.8-1,1.3-1.4
			c0.3-0.3,0.1-0.1-0.2,0.4c-0.8,1-1.6,2-2.3,3.1c-0.5,0.8-1,1.7-1.5,2.6c-0.3,0.6-0.7,1.2-1,2c-0.6,1.3-1.1,2.8-1.4,4.3
			c-0.1,0.2-0.1,0.4-0.1,0.6c0,0.2-0.1,0.3-0.1,0.5c0,0.1-0.1,0.2-0.1,0.3c0,0.1,0,0.2-0.1,0.2c-0.1,0.3-0.2,0.9-0.3,1.4
			c0-0.1,0-0.2,0-0.2c0-0.1,0-0.2,0-0.2c0-0.2,0-0.3,0.1-0.5c0-0.2,0.1-0.3,0.1-0.5c0-0.1,0.1-0.3,0.1-0.4c0-0.2,0.1-0.3,0.1-0.5
			c0-0.2,0.1-0.3,0.1-0.5c0-0.1,0-0.2,0.1-0.2c0-0.1,0-0.2,0.1-0.2C0.8,20.7,0.9,20.6,0.9,20.5L1,20.2C1,20,1.1,19.8,1.2,19.6
			c0,0.1,0,0.1-0.1,0.2C1,20,1,20.3,0.9,20.5z"/>
		<path class="st0" d="M8.5,37c0-0.1-0.1-0.2-0.1-0.3c-0.1-0.1-0.1-0.3-0.2-0.5c0-0.1-0.1-0.2-0.1-0.3c0-0.1-0.1-0.2-0.1-0.3
			c0-0.1,0-0.1-0.1-0.2c0-0.1,0-0.1-0.1-0.2c0-0.1-0.1-0.2-0.1-0.3c-0.7-2.1-1.2-4.3-1.3-6.6c0-0.1,0-0.3,0-0.4l0-0.4
			c0-0.1,0-0.3,0-0.4c0-0.1,0-0.3,0-0.4c0-0.3,0-0.6,0-0.9c0-0.3,0-0.6,0.1-0.9c0.1-1.1,0.4-2.3,0.6-3.4c0-0.1,0.1-0.2,0.1-0.4
			c0-0.1,0.1-0.2,0.1-0.4c0-0.1,0.1-0.2,0.1-0.4c0-0.1,0.1-0.2,0.1-0.4c0.1-0.4,0.3-0.8,0.3-0.7c0,0.1,0,0.2-0.1,0.3
			c-0.1,0.4-0.3,0.9-0.4,1.3c-0.7,2.3-1,4.7-0.9,7.1c0,0.6,0.1,1.2,0.1,1.8c0.1,0.6,0.2,1.2,0.3,1.8c0.2,1.2,0.5,2.3,1,3.4
			c0.1,0.3,0.2,0.5,0.3,0.8c0.1,0.1,0.1,0.3,0.2,0.4c0.1,0.1,0.1,0.3,0.2,0.4c0.2,0.5,0.5,1,0.8,1.5c0.1,0.1,0.1,0.3,0.2,0.4
			c0,0.1,0.1,0.1,0.1,0.2c0,0.1,0.1,0.1,0.1,0.1c0.1,0.1,0,0.1-0.1-0.1c-0.1-0.1-0.1-0.2-0.2-0.3c0-0.1-0.1-0.1-0.1-0.2
			c0-0.1-0.1-0.2-0.1-0.3C9,38,9,37.9,8.9,37.8C8.8,37.6,8.7,37.4,8.5,37z"/>
		<path class="st0" d="M17.8,8.3c-0.4,0.2-0.9,0.5-1.4,0.8c-0.5,0.3-1,0.6-1.4,1c-0.5,0.4-1,0.7-1.4,1.2c-0.5,0.4-0.9,0.8-1.4,1.3
			C12,12.8,11.7,13,11.8,13c0,0,0.1-0.1,0.2-0.2c0.1-0.1,0.2-0.2,0.3-0.4c0.1-0.1,0.2-0.2,0.2-0.3c0.1-0.1,0.2-0.2,0.3-0.3
			c0.1-0.1,0.2-0.2,0.3-0.3c0.7-0.6,1.4-1.2,2.1-1.7c0.7-0.5,1.5-1,2.3-1.5L17.8,8.3L18,8.1L18.2,8l0.2-0.1l0.3-0.2
			c0.4-0.2,0.8-0.4,1.3-0.6c0.2-0.1,0.4-0.2,0.6-0.3c0.1,0,0.2-0.1,0.3-0.1c0.1,0,0.2-0.1,0.3-0.1c0.2-0.1,0.4-0.1,0.7-0.2l0.3-0.1
			l0.3-0.1c0.2,0,0.3-0.1,0.5-0.1c0.2,0,0.4-0.1,0.5-0.1c0.1,0,0.1,0,0.2,0c0,0,0.1,0,0,0c-0.1,0-0.2,0.1-0.3,0.1
			c-0.1,0-0.2,0.1-0.3,0.1c-0.2,0.1-0.5,0.1-0.7,0.2c-0.2,0.1-0.5,0.2-0.8,0.2c-0.3,0.1-0.5,0.2-0.8,0.3c-0.2,0.1-0.4,0.2-0.6,0.2
			c-0.1,0-0.2,0.1-0.3,0.1c-0.1,0-0.2,0.1-0.4,0.1C19.1,7.6,18.5,7.9,17.8,8.3z"/>
		<path class="st0" d="M34.1,6.1c0.1,0-0.1-0.1,0.6,0.1c0.2,0.1,0.4,0.1,0.6,0.2c0.2,0,0.3,0.1,0.2,0.1c0,0,0.1,0,0.4,0.1
			c0.1,0,0.3,0.1,0.5,0.2c0.2,0.1,0.4,0.1,0.5,0.2c2,0.9,4,2,5.7,3.5c0.1,0.1,0.2,0.2,0.3,0.2c0.1,0.1,0.3,0.3,0.3,0.3
			c0,0,0,0.1-0.1,0c-0.1-0.1-0.3-0.2-0.5-0.4c-0.1-0.1-0.2-0.1-0.2-0.2c-0.1-0.1-0.2-0.1-0.3-0.2c-0.2-0.1-0.4-0.3-0.6-0.4
			c-0.1-0.1-0.2-0.1-0.3-0.2c-0.1,0-0.1-0.1-0.2-0.1c-0.1,0-0.1-0.1-0.2-0.1c-0.1-0.1-0.3-0.2-0.4-0.3c-0.1-0.1-0.2-0.2-0.4-0.2
			c-0.2-0.1-0.5-0.3-0.7-0.4C39.2,8.1,39,8,38.7,7.9c-0.2-0.1-0.5-0.2-0.7-0.3C37.4,7.2,36.8,7,36.6,7c0,0-0.2-0.1-0.4-0.1
			c-0.1,0-0.2-0.1-0.3-0.1c-0.1,0-0.1,0-0.2-0.1c0,0-0.1,0-0.1,0l0,0C35.4,6.5,34.8,6.3,34.1,6.1L34.1,6.1z"/>
		<path class="st0" d="M31.1,51.9c-0.7,0.1-1.3,0.2-2,0.2c-0.7,0-1.4,0-2.1,0c-0.6,0-1.3-0.1-1.9-0.2c-0.6-0.1-1.3-0.2-1.9-0.3
			c-1.3-0.3-2.5-0.6-3.7-1.1c-0.3-0.1-0.5-0.2-0.8-0.3c-0.1-0.1-0.3-0.1-0.4-0.2L18,50c-0.1,0-0.1-0.1-0.2-0.1l-0.4-0.2
			c-0.1-0.1-0.3-0.1-0.4-0.2c-0.1-0.1-0.3-0.1-0.4-0.2c-0.1-0.1-0.3-0.1-0.4-0.2c-0.1-0.1-0.3-0.1-0.4-0.2c-0.1-0.1-0.2-0.1-0.3-0.2
			c-0.1-0.1-0.2-0.1-0.3-0.2c-0.1-0.1-0.2-0.1-0.2-0.2c-0.2-0.1-0.1-0.1,0.2,0.1c0.6,0.4,1.2,0.7,1.8,1l0.4,0.2
			c0.1,0.1,0.2,0.1,0.4,0.2c0.2,0.1,0.5,0.2,0.7,0.3c0.1,0.1,0.2,0.1,0.4,0.2c0.1,0.1,0.2,0.1,0.4,0.1l0.4,0.1l0.4,0.1l0.2,0.1
			l0.2,0.1l0.4,0.1l0.4,0.1l0.2,0.1l0.2,0.1l0.4,0.1l0.4,0.1l0.2,0l0.2,0l0.4,0.1c0.5,0.1,1.1,0.2,1.6,0.3c0.3,0,0.5,0.1,0.8,0.1
			c0.1,0,0.3,0,0.4,0c0.1,0,0.3,0,0.4,0c0.3,0,0.5,0,0.8,0c0.1,0,0.3,0,0.4,0l0.4,0c0.1,0,0.3,0,0.4,0l0.4,0l0.4,0l0.2,0l0.2,0
			c0.1,0,0.3,0,0.4,0c0.1,0,0.3,0,0.4,0C30.6,51.9,30.9,51.9,31.1,51.9z"/>
		<path class="st0" d="M49.7,16.4c0.6,1.2,1.2,2.5,1.6,3.8c0.3,1,0.5,1.9,0.7,2.8c0.2,0.9,0.3,1.6,0.4,2.3c0,0,0,0.1,0,0.2
			c0,0.1,0,0.2,0,0.3c0,0.1,0,0.2,0,0.3c0,0.1,0,0.2,0,0.3c0,0.3,0,0.5,0,0.4c0-0.2-0.1-0.6-0.1-1c0-0.1,0-0.2,0-0.3
			c0-0.1,0-0.2,0-0.3c0-0.1,0-0.1,0-0.2c0-0.1,0-0.1,0-0.2c0-0.1,0-0.3-0.1-0.4c0-0.2-0.1-0.4-0.1-0.7c0-0.3-0.1-0.6-0.1-0.8
			c0-0.1,0-0.2-0.1-0.4l-0.1-0.4l0-0.2l0-0.2l-0.1-0.4c0-0.1-0.1-0.2-0.1-0.4c0-0.1-0.1-0.2-0.1-0.4c-0.1-0.2-0.1-0.5-0.2-0.7
			L51,19.7l-0.1-0.3l-0.1-0.2L50.7,19l-0.1-0.3c0-0.1-0.1-0.2-0.1-0.3c0-0.1-0.1-0.2-0.1-0.3c-0.1-0.2-0.2-0.5-0.3-0.7
			c-0.1-0.1-0.1-0.3-0.2-0.4c-0.1-0.1-0.1-0.2-0.1-0.3C49.7,16.6,49.6,16.5,49.7,16.4c-0.1-0.1-0.1-0.1-0.1-0.1
			C49.5,16.2,49.6,16.2,49.7,16.4z"/>
		<path class="st0" d="M47.9,41c0,0,0-0.1,0.1-0.2c0,0,0.2-0.3,0.3-0.5c0.1-0.1,0.2-0.3,0.2-0.4c0.1-0.1,0.1-0.2,0.2-0.3
			c0.3-0.5,0.6-0.9,0.9-1.5c0.1-0.1,0.1-0.3,0.2-0.4c0.1-0.1,0.1-0.3,0.2-0.4c0.1-0.1,0.1-0.3,0.2-0.4c0.1-0.2,0.1-0.3,0.2-0.5
			c0.1-0.1,0.1-0.2,0,0c0,0.1-0.1,0.2-0.1,0.3c0,0.1-0.1,0.2-0.1,0.4c-0.1,0.1-0.1,0.3-0.2,0.4c-0.1,0.1-0.1,0.3-0.2,0.4
			c-0.3,0.6-0.6,1.2-1,2c-0.1,0.1-0.1,0.2-0.2,0.3c-0.1,0.1-0.2,0.2-0.2,0.3c-0.1,0.2-0.3,0.4-0.3,0.4C48,40.9,48,41,47.9,41z"/>
		<path class="st0" d="M35,48.7c-0.1,0-0.3,0.1-0.4,0.2c-0.2,0.1-0.3,0.1-0.5,0.2c-0.2,0.1-0.4,0.1-0.6,0.2c-0.1,0-0.2,0.1-0.3,0.1
			c-0.1,0-0.2,0-0.3,0.1c-0.6,0.1-1.3,0.2-2.1,0.3c-0.2,0-0.3,0-0.5,0c-0.2,0-0.3,0-0.5,0c-0.2,0-0.3,0-0.5,0c-0.2,0-0.3,0-0.5,0
			c-0.9,0-1.8,0-2.6-0.1c-0.2,0-0.4,0-0.5-0.1c-0.1,0-0.2,0-0.2,0c0,0,0.1,0,0.2,0c0.2,0,0.4,0,0.6,0c0.2,0,0.4,0,0.6,0
			c0.2,0,0.4,0,0.6,0c2.2,0.1,4.4-0.2,6.5-0.7c0.2,0,0.3-0.1,0.5-0.1c0.1,0,0.2,0,0.2-0.1C34.9,48.7,35,48.7,35,48.7z"/>
		<path class="st0" d="M2,37.8c-1-2.5-1.6-5-1.8-7.6c0-0.1,0-0.3,0-0.3c0,0.1,0,0.3,0.1,0.4c0.1,1,0.3,2,0.5,2.9
			c0.2,0.9,0.4,1.8,0.7,2.6c0.1,0.2,0.1,0.3,0.2,0.5c0.1,0.2,0.1,0.3,0.2,0.4c0.1,0.3,0.2,0.5,0.3,0.8c0.2,0.5,0.4,1.1,0.8,1.9
			c-0.1-0.3-0.3-0.5-0.4-0.8C2.2,38.4,2.1,38.1,2,37.8z"/>
		<path class="st0" d="M47.5,10.5c0.7,0.8,1.3,1.6,1.8,2.4c0.1,0.1,0.1,0.2,0.1,0.2c0,0.1,0.1,0.1,0.1,0.2c0,0.1,0.1,0.1,0,0
			c-0.1-0.2-0.3-0.4-0.4-0.5c-0.4-0.6-0.8-1.1-1.2-1.6c-0.4-0.5-0.9-1-1.3-1.5c-0.1-0.1-0.2-0.2-0.3-0.3C46.2,9.2,46,9.1,45.9,9
			c-0.1-0.1-0.2-0.2-0.4-0.3l-0.2-0.2l-0.2-0.2C45.1,8.2,45,8.1,44.8,8c-0.1-0.1-0.2-0.2-0.4-0.3c-0.3-0.2-0.5-0.4-0.8-0.6
			c-0.1,0-0.2-0.1-0.3-0.2c-0.1-0.1-0.2-0.1-0.2-0.2c0,0,0.1,0,0.2,0.1C44.7,7.8,46.1,8.9,47.5,10.5z"/>
		<path class="st0" d="M35.6,6.6C35,6.4,34.4,6.2,33.7,6c-0.6-0.2-1.2-0.3-1.7-0.3c-0.1,0-0.2,0-0.3-0.1c-0.1,0-0.1,0-0.2,0
			c-0.1,0-0.1,0-0.1,0c-0.5-0.1-1.2-0.2-1.9-0.2s-1.4-0.1-2.1,0c-0.1,0-0.2,0-0.4,0c-0.3,0-0.6,0-0.5,0c0.2,0,0.4,0,0.5-0.1
			c0.1,0,0.3,0,0.4,0c0.1,0,0.3,0,0.4,0c0.3,0,0.5,0,0.8,0c0.1,0,0.3,0,0.4,0c0.1,0,0.1,0,0.2,0c0.1,0,0.1,0,0.2,0
			c0.1,0,0.2,0,0.4,0c0.1,0,0.2,0,0.3,0c0.3,0,0.5,0.1,0.8,0.1c0.1,0,0.2,0,0.4,0.1c0.1,0,0.1,0,0.2,0c0.1,0,0.1,0,0.2,0
			c0.1,0,0.2,0,0.3,0.1c0.1,0,0.2,0,0.3,0.1c0.1,0,0.2,0,0.3,0.1c0.1,0,0.2,0,0.3,0.1c0.3,0.1,0.7,0.2,1.1,0.3l-0.1,0
			c0.1,0,0.4,0.1,0.6,0.2c0.1,0,0.3,0.1,0.5,0.2c0.1,0,0.2,0.1,0.2,0.1C35.5,6.5,35.6,6.6,35.6,6.6L35.6,6.6z"/>
		<path class="st0" d="M1.2,34c-0.6-2.6-0.9-5.4-0.7-8c0-0.7,0.1-1.1,0.1-1.3c0-0.1,0,0,0,0.2c-0.1,0.9-0.1,2-0.1,3.1
			c0,0.1,0,0.2,0,0.2c0,0.1,0,0.2,0,0.2c0,0.2,0,0.3,0,0.4c0,0.6,0,1.4,0.1,2.3C0.8,32,1,33,1.2,34C1.2,34.1,1.2,34,1.2,34L1.2,34
			L1.2,34z"/>
		<path class="st0" d="M37.6,1.9c0,0,0.1,0,0.1,0C37.9,2,38,2,38.1,2.1c0.1,0,0.3,0.1,0.4,0.2c0.1,0,0.2,0.1,0.2,0.1
			c0.1,0,0.2,0.1,0.2,0.1c0.2,0.1,0.3,0.1,0.5,0.2c0.6,0.3,1.3,0.6,1.6,0.8c0,0,0,0,0,0c0,0,0,0,0.1,0c0.1,0,0.1,0.1,0.2,0.1
			c0.1,0.1,0.3,0.2,0.3,0.2C41.8,3.9,41.9,3.9,42,4c0.1,0,0.1,0.1,0.2,0.1c0.1,0,0.1,0.1,0.2,0.1c0.2,0.1,0.3,0.2,0.5,0.3
			c0.2,0.1,0.4,0.3,0.6,0.4c0.6,0.4,1.1,0.8,0.8,0.6c-0.2-0.1-0.4-0.3-0.6-0.4c-1.3-0.9-2.6-1.7-4.1-2.4c-0.2-0.1-0.4-0.2-0.5-0.2
			c-0.2-0.1-0.4-0.2-0.5-0.2c-0.3-0.1-0.7-0.3-0.9-0.4C37.7,2,37.7,2,37.6,1.9z"/>
		<path class="st0" d="M34,51.8c-0.7,0.2-1.2,0.3-1.6,0.3c-0.4,0.1-0.8,0.1-1.1,0.1c-0.3,0-0.4,0-0.2,0c0.1,0,0.2,0,0.3-0.1
			c0.1,0,0.3-0.1,0.5-0.1c1-0.2,2-0.4,2.9-0.6c0.1,0,0.1,0,0.2-0.1c0.1,0,0.1,0,0.2-0.1c0.1,0,0.2-0.1,0.3-0.1c0.2,0,0.2-0.1,0.1,0
			c-0.1,0-0.3,0.1-0.4,0.1c-0.1,0-0.1,0-0.2,0.1c-0.1,0-0.1,0-0.2,0.1c-0.1,0-0.3,0.1-0.4,0.1C34.3,51.7,34.1,51.8,34,51.8z"/>
		<path class="st0" d="M36.1,52c0.1,0,0.1-0.1,0.1-0.1c0,0,0.1,0,0.2-0.1c0.1,0,0.3-0.1,0.4-0.2c0.2-0.1,0.3-0.1,0.5-0.2
			c0.1,0,0.2-0.1,0.2-0.1c0.1,0,0.2-0.1,0.2-0.1c1-0.4,1.8-0.7,2.2-0.9c0.1,0,0,0-0.1,0.1c-0.1,0.1-0.3,0.2-0.5,0.3
			c-1,0.5-1.9,0.9-2.7,1.1C36.4,51.9,36.3,52,36.1,52z"/>
		<path class="st0" d="M53.1,16.6c0,0,0,0,0.1,0.1c0.8,1.8,1.4,3.6,1.8,5.6c0,0.1,0,0.2,0,0.2c0,0.1,0,0.2,0,0.3
			c0,0.2,0.1,0.4,0.1,0.5c0,0.1,0,0,0-0.1c-0.1-0.3-0.1-0.7-0.2-1.1c-0.4-1.8-0.9-3.6-1.6-5.4C53.1,16.8,53.1,16.7,53.1,16.6z"/>
		<path class="st0" d="M7.4,32.7c-0.2-0.6-0.3-1.2-0.4-1.8c0-0.2,0-0.3-0.1-0.5c0-0.1,0-0.2,0-0.2c0-0.1,0-0.1,0-0.2
			c0-0.1,0-0.2,0-0.2c0,0,0,0.2,0.1,0.4C7.1,31,7.3,31.9,7.4,32.7c0.3,0.8,0.5,1.6,0.8,2.4c0.1,0.2,0.1,0.3,0.1,0.3
			c0,0-0.1-0.1-0.1-0.3c0-0.1-0.1-0.2-0.1-0.3c0-0.1-0.1-0.2-0.1-0.3C7.7,33.9,7.5,33.3,7.4,32.7L7.4,32.7z"/>
		<path class="st0" d="M53.5,27c0-0.1,0-0.1,0-0.2c0-0.1,0-0.1,0-0.2c0-0.2,0-0.5-0.1-0.9c0-0.1,0-0.2,0-0.3c0-0.1,0-0.2,0-0.3
			c0-0.1,0-0.2,0-0.3c0-0.1,0-0.2,0-0.3c0-0.3,0-0.5-0.1-0.6c0-0.2,0-0.3,0-0.3c0-0.1,0,0,0.1,0.3c0,0.2,0.1,0.4,0.1,0.6
			c0,0.2,0.1,0.5,0.1,0.7c0,0.1,0,0.3,0,0.4c0,0.1,0,0.3,0,0.4c0,0.2,0,0.5,0,0.7c0,0.1,0,0.2,0,0.2C53.5,26.9,53.5,26.9,53.5,27z"
			/>
		<path class="st0" d="M49.8,16c0.2,0.4,0.4,0.9,0.6,1.3c0,0.1,0.1,0.2,0.1,0.3c0,0.1,0.1,0.2,0.1,0.3c0.1,0.2,0.2,0.4,0.3,0.7
			C51,18.9,51,19,51,19c0,0,0,0,0-0.1c0,0,0-0.1-0.1-0.1c0-0.1-0.1-0.2-0.1-0.3c-0.6-1.6-1.4-3.1-2.3-4.5c0-0.1-0.1-0.1-0.1-0.2
			c0-0.1-0.1-0.1-0.1-0.2c0,0,0.1,0.1,0.2,0.2C48.9,14.6,49.3,15.3,49.8,16z"/>
		<path class="st0" d="M41.1,4c0.1,0.1,0.2,0.1,0.4,0.2c0.8,0.4,1.6,1,2.4,1.5c0.1,0.1,0.2,0.2,0.3,0.3c0.1,0.1,0.3,0.2,0.4,0.3
			c0.3,0.2,0.5,0.4,0.5,0.5c0.1,0.1,0.1,0.2,0,0.1c0,0-0.2-0.1-0.3-0.2c-0.1-0.1-0.2-0.1-0.2-0.2c-0.1-0.1-0.2-0.1-0.2-0.2
			C43.3,5.4,42.1,4.6,41.1,4z"/>
		<path class="st0" d="M19.3,1.7C19.3,1.7,19.3,1.7,19.3,1.7c0.2-0.1,0.3-0.1,0.4-0.2c0.1,0,0.3-0.1,0.4-0.1
			c0.3-0.1,0.6-0.2,0.9-0.3c0.3-0.1,0.6-0.2,1-0.3c0.3-0.1,0.7-0.2,1-0.2c0.1,0,0.2,0,0.3-0.1c0.2,0,0.2,0,0.2,0
			c0,0-0.2,0.1-0.4,0.1c-0.1,0-0.3,0.1-0.4,0.1c-0.1,0-0.3,0.1-0.4,0.1c-0.1,0-0.1,0-0.2,0C22,1,21.9,1,21.8,1
			c-0.1,0-0.3,0.1-0.4,0.1c-0.1,0-0.3,0.1-0.4,0.1c-0.1,0-0.1,0-0.2,0.1c-0.1,0-0.1,0-0.2,0.1c-0.1,0-0.3,0.1-0.4,0.1
			c-0.1,0-0.3,0.1-0.4,0.1C19.5,1.7,19.4,1.7,19.3,1.7z"/>
		<path class="st0" d="M2.6,38.3c-0.3-0.7-0.6-1.4-0.8-2.1c-0.1-0.2-0.1-0.4-0.2-0.5c-0.1-0.2-0.1-0.4-0.2-0.5
			c-0.1-0.4-0.2-0.7-0.3-1.1c0,0,0,0.1,0,0.1c0.1,0.1,0.1,0.1,0.3,0.9c0,0.2,0.1,0.3,0.1,0.5c0,0.1,0,0.1,0.1,0.2
			c0,0.1,0,0.1,0.1,0.2c0,0.1,0.1,0.3,0.1,0.4c0,0.1,0.1,0.3,0.1,0.4c0,0.1,0,0.1,0.1,0.2c0,0.1,0,0.1,0.1,0.2
			c0,0.1,0.1,0.3,0.1,0.4c0.1,0.1,0.1,0.3,0.2,0.4C2.6,38.1,2.7,38.2,2.6,38.3c0.2,0.2,0.2,0.4,0.2,0.3C2.8,38.5,2.7,38.4,2.6,38.3
			L2.6,38.3z"/>
		<path class="st0" d="M42.7,4.2c-0.1-0.1-0.3-0.2-0.4-0.3c-0.1-0.1-0.3-0.2-0.4-0.2c-0.1,0,0.2,0.1,0.3,0.2
			C42.4,4,42.6,4.1,42.7,4.2c0.1,0,0.2,0,0.2,0.1c0.1,0.1,0.2,0.1,0.2,0.2c0.4,0.3,1,0.7,1.2,0.9c0.1,0.1,0.1,0.1,0,0
			c-0.1-0.1-0.4-0.3-0.8-0.5c-0.1,0-0.1-0.1-0.2-0.1c-0.1,0-0.1-0.1-0.2-0.1C43.1,4.5,42.9,4.4,42.7,4.2z"/>
		<path class="st0" d="M43.1,7.9c0.4,0.3,1,0.7,1.6,1.3c0.5,0.5,1,1,1.4,1.4c0.1,0.1,0.1,0.2,0.1,0.1c-0.1-0.1-0.2-0.2-0.3-0.3
			c-0.4-0.4-0.9-0.9-1.3-1.3C44.2,8.8,43.7,8.3,43.1,7.9z"/>
		<path class="st0" d="M12.3,4c0,0,0.2-0.2,0.5-0.4c0.1-0.1,0.3-0.2,0.5-0.3c0.1-0.1,0.2-0.1,0.2-0.2c0.1-0.1,0.2-0.1,0.2-0.1
			c0.1,0,0.2-0.1,0.3-0.2c0.1-0.1,0.2-0.1,0.3-0.2c0.1-0.1,0.2-0.1,0.3-0.2c0.1,0,0.2-0.1,0.2-0.1c0.1-0.1,0.3-0.1,0.2-0.1
			c-0.1,0.1-0.2,0.1-0.5,0.3C13.9,3,13.1,3.4,12.3,4z"/>
		<path class="st0" d="M40.1,6.5c-0.7-0.4-1.2-0.6-1.7-0.9c-0.1-0.1-0.3-0.1-0.4-0.2c-0.1-0.1-0.2-0.1-0.4-0.2
			c-0.1,0-0.1-0.1-0.2-0.1c-0.1,0-0.1,0-0.2-0.1c-0.1,0-0.2-0.1-0.4-0.1c-0.1-0.1-0.5-0.2-0.5-0.2c0,0,0.1,0,0.2,0.1
			c0.1,0,0.2,0.1,0.3,0.1c0.1,0,0.2,0.1,0.3,0.1c0.1,0,0.2,0.1,0.3,0.1c0.1,0,0.2,0.1,0.3,0.1c0.2,0.1,0.3,0.1,0.5,0.2
			c0.2,0.1,0.3,0.2,0.5,0.3c0.2,0.1,0.4,0.2,0.6,0.3C39.6,6.2,39.8,6.4,40.1,6.5z"/>
		<path class="st0" d="M52,28.7c0,0.2,0,0.4,0,0.5c0,0.2,0,0.3,0,0.4c0,0.1,0,0.2,0,0.3c0,0.1,0,0.1,0,0.1c0,0,0-0.1,0-0.2
			c0-0.1,0-0.1,0-0.2c0-0.1,0-0.2,0-0.3c0-0.2,0-0.5,0-0.8c0-0.1,0-0.3,0-0.4c0-0.1,0-0.2,0-0.3c0-0.4,0-0.3,0.1,0.1
			c0,0.1,0,0.2,0,0.2c0,0.1,0,0.2,0,0.3C52,28.4,52,28.6,52,28.7z"/>
		<path class="st0" d="M51.6,22.3c0.1,0.3,0.1,0.6,0.1,0.8c0,0.2,0,0.4,0,0.3c0,0,0-0.1,0-0.1c0,0,0-0.1,0-0.1c0,0,0-0.1,0-0.1
			C51.6,22.8,51.5,22.6,51.6,22.3c-0.2-0.5-0.3-1-0.3-1.2c0-0.1,0,0.1,0.1,0.3c0,0.1,0.1,0.3,0.1,0.4c0,0.1,0,0.1,0.1,0.2
			C51.5,22.1,51.5,22.2,51.6,22.3z"/>
		<path class="st0" d="M41.9,7.8c0.3,0.2,0.6,0.5,0.9,0.7c0.1,0.1,0.3,0.2,0.3,0.2c0,0-0.1,0-0.1-0.1c-0.1,0-0.2-0.1-0.2-0.2
			c-0.4-0.3-0.8-0.6-1.2-0.9c-0.3-0.2-0.4-0.3-0.2-0.2c0.1,0.1,0.2,0.1,0.3,0.2C41.7,7.7,41.8,7.8,41.9,7.8z"/>
		<path class="st0" d="M51.4,12.9c0.1,0.1,0.2,0.3,0.2,0.4c0.1,0.2,0.2,0.3,0.2,0.4c0.2,0.3,0,0-0.4-0.6c-0.1-0.2-0.2-0.4-0.3-0.5
			c-0.1-0.2-0.2-0.3-0.2-0.4c-0.1-0.1,0-0.1,0.1,0c0,0.1,0.1,0.1,0.2,0.2C51.2,12.6,51.3,12.7,51.4,12.9z"/>
		<path class="st0" d="M0.6,25.9c0-0.3,0-0.6,0.1-0.9c0-0.1,0-0.3,0-0.4c0-0.1,0-0.2,0-0.3c0-0.1,0-0.2,0-0.3c0-0.1,0-0.2,0-0.3
			c0-0.2,0-0.4,0.1-0.6c0,0,0-0.1,0-0.1c0,0,0-0.1,0-0.1c0,0,0,0,0,0.1c0,0,0,0.1,0,0.1c0,0.2-0.1,0.4-0.1,0.6c0,0.1,0,0.2,0,0.3
			c0,0.1,0,0.2,0,0.3c0,0.1,0,0.2,0,0.3c0,0.1,0,0.2,0,0.4C0.7,25.3,0.7,25.6,0.6,25.9z"/>
		<path class="st0" d="M13.5,4.2c0,0-0.1,0.1-0.1,0.1c-0.1,0-0.1,0.1-0.2,0.1c-0.1,0.1-0.2,0.2-0.4,0.3c-0.5,0.4-1.1,0.8-1,0.7
			c0,0,0.3-0.2,0.4-0.3c0.3-0.2,0.6-0.4,0.8-0.5c0.1-0.1,0.2-0.1,0.3-0.2C13.3,4.2,13.4,4.2,13.5,4.2z"/>
		<path class="st0" d="M2.6,38.2c0.6,1.4,1.3,2.8,2.2,4.1c0.1,0.1,0.1,0.2,0.2,0.3c-0.5-0.6-0.9-1.5-1.4-2.3
			C3.3,39.7,2.9,39,2.6,38.2C2.6,38.3,2.6,38.2,2.6,38.2z"/>
		<path class="st0" d="M6.2,24.1C6.2,24.1,6.2,24.1,6.2,24.1c0,0.1,0,0.2,0,0.3c0,0.1,0,0.1,0,0.2c0,0.1,0,0.1,0,0.2
			c0,0.1,0,0.2,0,0.3c0,0.2,0,0.3-0.1,0.5c0-0.1,0-0.2,0-0.3c0,0,0-0.1,0-0.1c0,0,0-0.1,0-0.1c0-0.2,0-0.3,0.1-0.5
			C6.1,24.4,6.2,24.2,6.2,24.1z"/>
		<path class="st0" d="M7.7,8.8c0,0.1-0.1,0.1-0.1,0.2C7.5,9.1,7.3,9.3,7.2,9.4C7.1,9.5,7,9.7,6.9,9.8C6.7,9.9,6.7,10,6.6,10.1
			c-0.1,0.1-0.1,0.1-0.1,0.1c0,0,0,0,0,0c0,0,0,0,0-0.1c0,0,0.1-0.1,0.1-0.2C7.1,9.4,7.6,8.9,7.7,8.8z"/>
		<path class="st0" d="M37.6,6.8c-0.1,0-0.1-0.1-0.2-0.1c-0.1,0-0.1,0-0.2-0.1c-0.1,0-0.2-0.1-0.3-0.1c-0.3-0.1-0.6-0.3-1.4-0.5
			C36.3,6.2,37,6.5,37.6,6.8C37.6,6.8,37.6,6.8,37.6,6.8z"/>
		<path class="st0" d="M35.5,3.3c0.1,0-0.1,0-0.4-0.1c-0.1,0-0.3-0.1-0.5-0.1c-0.1,0-0.2,0-0.3-0.1c-0.1,0-0.2,0-0.3-0.1
			c-0.1,0-0.3-0.1-0.3-0.1c-0.1-0.1,0.7,0.1,1.5,0.3C35.4,3.3,35.4,3.3,35.5,3.3z"/>
		<path class="st0" d="M30.9,0.3c0.2,0,0.3,0,0.6,0c0,0,0.1,0,0.2,0c0.1,0,0.1,0,0.2,0c0.2,0,0.1,0-0.3,0
			C31.4,0.4,31.1,0.3,30.9,0.3z"/>
		<path class="st0" d="M21.9,0.1c0.2,0,0.4-0.1,0.6-0.1c0.2,0,0.4-0.1,0.5-0.1c0.1,0-0.1,0.1-0.4,0.1c-0.4,0.1-0.9,0.2-1.2,0.3
			c-0.2,0-0.3,0.1-0.3,0c0,0,0.1,0,0.3-0.1c0.1,0,0.2,0,0.2-0.1C21.8,0.1,21.8,0.1,21.9,0.1z"/>
		<path class="st0" d="M31,5.3c-0.1,0-0.2,0-0.3,0l0.2,0C31,5.3,31,5.3,31,5.3z"/>
		<path class="st0" d="M49.2,17.7c0.1,0.2,0.2,0.5,0.2,0.5c0,0-0.1-0.1-0.1-0.3c-0.1-0.1-0.2-0.3-0.2-0.5c-0.1-0.2-0.2-0.4-0.2-0.4
			C48.9,17.1,49.1,17.3,49.2,17.7z"/>
		<path class="st0" d="M40.3,8.2C40.2,8.2,40.1,8.1,40,8c-0.1-0.1-0.2-0.1-0.3-0.2c-0.2-0.1-0.4-0.2-0.6-0.4
			c-0.1-0.1-0.2-0.1-0.3-0.2c-0.1-0.1-0.2-0.1-0.3-0.2C38.2,7.1,38.1,7,38,7c-0.1-0.1-0.2-0.1-0.4-0.2c0,0,0,0,0,0
			c0.1,0.1,0.2,0.1,0.3,0.2C38.1,7,38.2,7,38.3,7.1c0.2,0.1,0.4,0.2,0.6,0.3C39.4,7.7,39.8,7.9,40.3,8.2L40.3,8.2z"/>
		<path class="st0" d="M48.5,10c0.1,0.1,0.2,0.3,0.2,0.3c0,0,0,0-0.1-0.1C48.6,10.2,48.6,10.1,48.5,10c-0.1,0-0.2-0.1-0.2-0.2
			c-0.1-0.1-0.2-0.2-0.2-0.3c0,0,0-0.1,0,0c0,0,0.1,0.1,0.2,0.2c0,0,0.1,0.1,0.1,0.1C48.5,9.9,48.5,10,48.5,10z"/>
		<path class="st0" d="M34.4,1.3l0.4,0.1c0.1,0,0.3,0.1,0.4,0.1l-0.3-0.1C34.7,1.4,34.5,1.3,34.4,1.3c0,0,0.1,0,0.1,0
			C34.5,1.3,34.4,1.3,34.4,1.3z"/>
		<polygon class="st0" points="6.8,21.4 6.9,21.1 6.8,21.4 		"/>
		<path class="st0" d="M39.6,6.4L39.6,6.4c0,0-0.2-0.1-0.2-0.1C39.2,6.2,39.3,6.2,39.6,6.4z"/>
		<path class="st0" d="M42,7.7l0.1,0.1l0.1,0.1l0,0C42.1,7.8,42.1,7.7,42,7.7z"/>
		<path class="st0" d="M1.2,33.9c0,0.2,0.1,0.4,0.1,0.5c0,0.2,0.1,0.3,0.1,0.5c0,0-0.1-0.2-0.1-0.2c0-0.1-0.1-0.2-0.1-0.3
			C1.2,34.2,1.2,34.1,1.2,33.9C1.2,34,1.2,33.9,1.2,33.9z"/>
		<path class="st0" d="M25.2,54.4c0,0-0.1,0-0.1,0C25.1,54.4,25.2,54.4,25.2,54.4z"/>
		<path class="st0" d="M12.5,7.6C12.5,7.5,12.6,7.5,12.5,7.6c0,0-0.1,0.1-0.2,0.2C12,8,12,8,12.2,7.8C12.3,7.7,12.4,7.6,12.5,7.6z"
			/>
		<path class="st0" d="M14,2.2c0.1-0.1,0.2-0.1,0.3-0.2c0.1-0.1,0.2-0.1,0.3-0.1C14.5,1.9,14.4,2,14.3,2C14.2,2.1,14.1,2.1,14,2.2z"
			/>
		<path class="st0" d="M2.8,26.5c0-0.2,0-0.3,0-0.5c0-0.2,0-0.3,0-0.5c0,0,0,0,0,0l0,0.5C2.8,26.2,2.8,26.4,2.8,26.5L2.8,26.5z"/>
		<polygon class="st0" points="1.2,21.1 1.2,21.2 1.3,20.9 		"/>
		<path class="st0" d="M26.1,3.1l0.1,0C26.3,3.1,26.1,3.1,26.1,3.1C26.1,3.1,26.1,3.1,26.1,3.1z"/>
		<path class="st0" d="M37.1,4.9c-0.2-0.1-0.4-0.1-0.5-0.2C36.8,4.8,37,4.8,37.1,4.9C37.1,4.9,37.1,4.9,37.1,4.9L37.1,4.9z"/>
		<path class="st0" d="M37,4.9L37.4,5c-0.1,0-0.2-0.1-0.2-0.1C37.2,4.9,37.1,4.9,37,4.9C37.1,4.9,37,4.9,37,4.9z"/>
		<path class="st0" d="M38.5,2.8c0.1,0,0.2,0.1,0.3,0.1C38.7,2.9,38.5,2.8,38.5,2.8c-0.1,0-0.2-0.1-0.3-0.1L38.5,2.8z"/>
		<path class="st0" d="M40.2,8.2L40.2,8.2C40.2,8.2,40.3,8.2,40.2,8.2C40.3,8.2,40.2,8.2,40.2,8.2z"/>
		<path class="st0" d="M46.4,11.8c0-0.1-0.1-0.1-0.1-0.2l0,0C46.3,11.7,46.3,11.8,46.4,11.8z"/>
		<polygon class="st0" points="52,27.3 52,27.2 52,27.4 		"/>
		<polygon class="st0" points="21,51.5 20.7,51.4 20.9,51.5 		"/>
		<path class="st0" d="M12.3,46.7c0.3,0.2,0.4,0.3,0.3,0.3C12.6,46.9,12.5,46.8,12.3,46.7C12.4,46.7,12.3,46.7,12.3,46.7L12.3,46.7z
			"/>
		<path class="st0" d="M27.4,3.9c0.1,0,0.2,0,0.3,0l0.3,0C27.9,3.9,27.7,3.9,27.4,3.9C27.4,3.9,27.4,3.9,27.4,3.9z"/>
		<path class="st0" d="M4.9,23.4C5,22.5,5.2,21.8,5.4,21c0.2-0.7,0.5-1.4,0.7-2c0-0.1,0.1-0.2,0.1-0.3c0-0.1,0.1-0.1,0.1-0.2
			c0-0.1,0-0.1,0,0c0,0,0,0.1-0.1,0.2c0,0.1-0.1,0.2-0.1,0.3c-0.3,0.8-0.6,1.6-0.8,2.3C5.2,22,5,22.7,4.9,23.4z"/>
	</g>
</g>
<g id="Layer_1">
	<path class="st0" d="M47.6,29.1c-3.2,0-6.3,0-9.5,0c-0.1-0.3-0.1-0.7-0.1-0.9c-0.3-2.1-0.7-4.3-1.1-6.4c-0.1-0.6-0.4-1.3-0.7-1.8
		c-0.3-0.7-1-0.7-1.4-0.1c-0.1,0.2-0.3,0.5-0.3,0.7c-0.3,1.3-0.6,2.7-0.9,4.1c-0.1,0.5-0.2,1-0.3,1.5c-0.4-0.9-0.8-1.8-1.1-2.7
		c-0.5-1.5-1.1-2.9-1.6-4.4c-1.1-3.1-2.2-6.2-3.3-9.3c-0.1-0.4-0.3-0.5-0.7-0.3c-0.2,0.1-0.3,0.3-0.5,0.3c-0.5,0.3-0.4,0.9-0.5,1.3
		c-1.2,3.5-2.4,6.9-3.5,10.4c-0.2,0.6-0.5,1.2-0.7,1.9c-0.5,1.4-1,2.9-1.5,4.3c0,0-0.1,0.1-0.1,0.1c-0.1-0.4-0.1-0.7-0.2-1.1
		c-0.3-1.5-0.5-3-0.7-4.5c-0.1-0.6-0.4-1.3-0.7-1.8c-0.4-0.7-1.1-0.7-1.5,0c-0.2,0.3-0.3,0.7-0.5,1.1c-0.3,1.4-0.6,2.8-0.9,4.2
		c-0.2,1.1-0.3,2.3-0.5,3.5c-3.3,0-6.6,0-9.9,0c0,0.1,0,0.3,0,0.4c3.3,0,6.5,0,9.9,0c0,0.2,0,0.3-0.1,0.5c-0.3,1.9-0.6,3.9-0.9,5.9
		c-0.3,1.8-0.7,3.7-1.6,5.5c-0.5,1.2-1.3,2.3-2.3,3.1c-0.8,0.7-1.7,1.2-2.8,1.2c-0.1,0-0.2,0.1-0.3,0.1c0.1,0.1,0.3,0.1,0.5,0.1
		c1.5,0,2.7-0.7,3.6-1.9c1.1-1.3,1.7-2.9,2.2-4.5c0.8-2.5,1.3-5.2,1.6-7.9c0.1-0.7,0.2-1.4,0.3-2.1c1.3,0,2.6,0,3.9,0
		c0.5,1.6,0.9,3.2,1.3,4.7c0.5,1.9,1.5,3.7,2.9,5.2c0.6,0.7,1.3,1.1,2.1,1.5c0.1,0.1,0.3,0.1,0.5,0.1c-0.1-0.1-0.1-0.2-0.1-0.2
		c-1.3-0.5-2.1-1.5-2.7-2.8c-0.9-2.1-1.7-4.3-2.2-6.5c-0.1-0.7-0.3-1.3-0.5-2.1c4.3,0,8.4,0,12.6,0c0,0.1,0,0.1,0,0.2
		c-0.3,1.4-0.7,2.8-1.1,4.2c-0.1,0.3-0.2,0.3-0.5,0.3c-1.1-0.3-2.1-0.7-3.1-1.1c-0.8-0.3-0.8-0.3-0.8-1.2c0-0.5-0.1-1-0.3-1.5
		c-0.1-0.3-0.3-0.5-0.7-0.4c-0.3,0.1-0.5,0.4-0.5,0.7c0,0.1,0,0.3,0,0.4c0.3,0.5,0.5,0.9,0.8,1.3c0.2,0.3,0.3,0.5,0.1,0.7
		c-0.2,0.4-0.4,0.8-0.6,1.2c-0.6,1.1-1.5,1.7-2.5,2.4c-0.2,0.1-0.3,0.3-0.5,0.4l0.1,0.1c0.3-0.1,0.5-0.3,0.9-0.5
		c1.1-0.5,1.9-1.3,2.5-2.4c0.2-0.3,0.4-0.7,0.6-1.1c0.1-0.3,0.3-0.3,0.5-0.1c0.3,0.2,0.7,0.4,1,0.5c0.7,0.3,1.5,0.7,2.3,1.1
		c-0.1,0.1-0.2,0.3-0.3,0.3c-0.6,0.7-1.2,1.3-1.8,1.9c-0.6,0.7-1.2,1.3-1.8,2c-0.1,0.1-0.1,0.3-0.1,0.4c0.1,0,0.3,0,0.3-0.1
		c0.9-0.9,1.7-1.9,2.5-2.7c0.5-0.5,0.9-0.9,1.3-1.4c0.1,0,0.1,0.1,0.1,0.1c-0.4,0.9-0.7,1.9-1.1,2.7c-0.5,1.1-1.3,2-2.5,2.4
		c-0.1,0-0.1,0.1-0.2,0.1c0.1,0.1,0.1,0.1,0.1,0.1c0.1-0.1,0.3-0.1,0.4-0.1c0.5-0.3,1.1-0.6,1.5-1c1.3-1.1,2.3-2.6,2.8-4.3
		c0.7-1.8,1.1-3.7,1.7-5.6c0.1-0.3,0.2-0.4,0.5-0.4c0.9,0,1.9,0,2.8,0c0.3,0,0.5,0,0.7,0c0,0.1,0.1,0.2,0.1,0.3
		c0.4,2.7,0.7,5.4,1.5,8.1c0.5,1.9,1.1,3.7,2.3,5.3c0.9,1.4,2.2,2.3,3.9,2.4c0.2,0,0.3,0,0.5,0c-0.1-0.1-0.3-0.1-0.5-0.1
		c-0.7-0.1-1.3-0.3-1.9-0.7c-1.5-1-2.5-2.5-3.1-4.1c-1-2.4-1.5-4.9-1.9-7.4c-0.2-1.3-0.4-2.5-0.5-3.8c3.2,0,6.3,0,9.5,0
		C47.6,29.3,47.6,29.2,47.6,29.1z M15.1,29.1c0.1-0.5,0.1-1,0.2-1.5c0.3-1.9,0.7-3.9,1.1-5.8c0.1-0.4,0.3-0.8,0.5-1.2
		c0.1-0.1,0.3-0.3,0.4-0.3c0.1,0.1,0.3,0.3,0.3,0.4c0.1,0.5,0.3,1.1,0.3,1.6c0.3,2.2,0.6,4.5,0.9,6.7C17.6,29.1,16.4,29.1,15.1,29.1
		z M20.4,29.1c1.9-5.9,3.9-11.7,5.9-17.6c0-0.1,0.1-0.1,0.1-0.1c2.1,5.9,4.1,11.8,6.2,17.6C28.5,29.1,24.5,29.1,20.4,29.1z
		 M26.9,32.2c-0.5-0.3-0.8-0.9-0.7-1.3c0.1-0.3,0.2-0.3,0.5-0.1C27.1,31.1,26.9,31.7,26.9,32.2z M34.1,29.1c0.1-0.7,0.3-1.3,0.3-2
		c0.3-1.7,0.5-3.5,0.7-5.3c0.1-0.5,0.2-0.9,0.3-1.4c0.1-0.1,0.2-0.3,0.3-0.4c0.1,0.1,0.3,0.1,0.3,0.3c0.2,0.5,0.5,0.9,0.5,1.4
		c0.5,2.4,0.9,4.8,1.4,7.3C36.6,29.1,35.3,29.1,34.1,29.1z"/>
</g>
</svg>
