<svg id="Layer_1" data-name="Layer 1" xmlns="http://www.w3.org/2000/svg" width="55" height="55" viewBox="0 0 179.23 179.23"><defs><style>.cls-1{fill:#fff;}</style></defs><path class="cls-1" d="M51.65,12.51a2.35,2.35,0,0,1,1.75-2.24A147,147,0,0,1,69.18,4.69a8.93,8.93,0,0,1,2-.29,1.8,1.8,0,0,1,2,1.49A1.74,1.74,0,0,1,71.87,8h0c-1.65.53-3.34.89-5,1.42a85.45,85.45,0,0,0-12.27,4.79,1.9,1.9,0,0,1-2.94-1.68Z" transform="translate(-1.77 -1.86)"/><path class="cls-1" d="M147.46,22.5c0,1.69-1.76,2.4-3.27,1.49-.94-.57-1.77-1.29-2.66-1.93a109.87,109.87,0,0,0-11.31-7,5.57,5.57,0,0,0-.81-.29,2.09,2.09,0,0,1-1.5-2.55c0-.06,0-.12,0-.17.42-1.16,1.5-1.58,2.85-1a41.74,41.74,0,0,1,5.65,3.08,91.15,91.15,0,0,1,7.92,5.24c.83.65,1.66,1.27,2.48,1.94A1.32,1.32,0,0,1,147.46,22.5Z" transform="translate(-1.77 -1.86)"/><path class="cls-1" d="M4,71.73c.55-2,1.1-4.19,1.71-6.36a89.07,89.07,0,0,1,4.4-11.63,2.21,2.21,0,0,1,2.57-1.33A1.78,1.78,0,0,1,14,54.6a2,2,0,0,1-.2.47c-1,2.59-2.1,5.13-3.15,7.69a83.35,83.35,0,0,0-2.87,9.43c-.42,1.55-1.4,2-2.67,1.4A2.12,2.12,0,0,1,4,71.73Z" transform="translate(-1.77 -1.86)"/><path class="cls-1" d="M5.76,92.75v5c0,1.15-.33,2-1.6,2.09A2,2,0,0,1,2.06,98V98c-.17-2.82-.29-5.7-.29-8.61.1-3.19.5-6.38.77-9.57a2.43,2.43,0,0,1,1.12-2.19,1.82,1.82,0,0,1,2.1.16A2.29,2.29,0,0,1,6.54,80,70.06,70.06,0,0,0,5.76,92.75Z" transform="translate(-1.77 -1.86)"/><path class="cls-1" d="M24.83,146.18A1.73,1.73,0,0,1,23.44,148a1.85,1.85,0,0,1-2.09-.73A80.09,80.09,0,0,1,13.71,136a26.85,26.85,0,0,1-2.52-4.81,1.86,1.86,0,0,1,2.1-2.62,1.8,1.8,0,0,1,1.4,1.1,79.85,79.85,0,0,0,9.37,14.91C24.83,145.53,24.83,145.61,24.83,146.18Z" transform="translate(-1.77 -1.86)"/><path class="cls-1" d="M172.9,122.16a1.76,1.76,0,0,1,1.81,2.59c-.59,1.61-1.35,3.14-2.1,4.76A71.64,71.64,0,0,1,166.08,141c-.48.7-1,1.43-2.09,1.26-1.63-.26-2.1-1.88-1.05-3.48a83.9,83.9,0,0,0,5.93-10.33c.79-1.65,1.47-3.33,2.17-5C171.47,122.65,171.94,122,172.9,122.16Z" transform="translate(-1.77 -1.86)"/><path class="cls-1" d="M65.7,177.29a12.08,12.08,0,0,1-3-.87,80.52,80.52,0,0,1-14.8-6.63c-1.35-.76-1.67-1.7-1-2.85s1.56-1.2,2.83-.49A87.39,87.39,0,0,0,66,173.51a1.79,1.79,0,0,1,1.48,2A1.87,1.87,0,0,1,65.7,177.29Z" transform="translate(-1.77 -1.86)"/><path class="cls-1" d="M91.45,5.87A66.26,66.26,0,0,0,79,6.68a1.75,1.75,0,0,1-2.17-1.2,1.4,1.4,0,0,1-.06-.28,1.69,1.69,0,0,1,1-2.13A1.72,1.72,0,0,1,78.28,3a62.71,62.71,0,0,1,6.83-.83c3.57-.16,7.16-.56,10.75,0a10.87,10.87,0,0,1,2,.34A1.63,1.63,0,0,1,99,4.38a1.58,1.58,0,0,1-1.63,1.53h-.12Z" transform="translate(-1.77 -1.86)"/><path class="cls-1" d="M177,64.91c-.22.91-.43,1.81-1.54,2a1.83,1.83,0,0,1-2.2-1.36v0A81.72,81.72,0,0,0,166.1,49.4c-.79-1.41-.53-2.44.63-3.15s1.93-.14,2.74,1.26a85.42,85.42,0,0,1,7.2,16.39A9.94,9.94,0,0,1,177,64.91Z" transform="translate(-1.77 -1.86)"/><path class="cls-1" d="M43.86,164.05a1.82,1.82,0,0,1-1.79,1.86,1.85,1.85,0,0,1-1.19-.41,79.1,79.1,0,0,1-9-7.1c-1.79-1.59-3.45-3.32-5.16-5-1.05-1-1.05-2-.11-2.86s1.83-.78,2.86.28a79.92,79.92,0,0,0,10.91,9.55c1,.71,1.82,1.53,2.83,2.19A1.64,1.64,0,0,1,43.86,164.05Z" transform="translate(-1.77 -1.86)"/><path class="cls-1" d="M105.14,3a83.12,83.12,0,0,1,12.37,2.87c1.88.57,3.72,1.26,5.57,1.95,1.45.52,2,1.42,1.46,2.61a1.84,1.84,0,0,1-2.64.91A90.1,90.1,0,0,0,107,7.14c-.74-.15-1.5-.27-2.25-.39-1.12-.18-1.92-.75-1.85-1.95A2,2,0,0,1,104.93,3Z" transform="translate(-1.77 -1.86)"/><path class="cls-1" d="M32,29a1.65,1.65,0,0,1-1.84-1.1,1.83,1.83,0,0,1,.55-2.1,68.82,68.82,0,0,1,6.15-5.16A78.33,78.33,0,0,1,45,15c.24-.15.52-.26.77-.4a1.89,1.89,0,0,1,2.66.32l.12.16a1.93,1.93,0,0,1-.7,2.65l-.23.11A97.07,97.07,0,0,0,36,26.18a25.46,25.46,0,0,0-2.19,2.1A2,2,0,0,1,32,29Z" transform="translate(-1.77 -1.86)"/><path class="cls-1" d="M88.05,181.06a85.58,85.58,0,0,1-15.22-1.79,2,2,0,0,1-1.8-2.43,2.1,2.1,0,0,1,2.62-1.37,75.64,75.64,0,0,0,14.91,1.85c1,0,2.1.17,3.15.24a1.5,1.5,0,0,1,1.53,1.69A1.54,1.54,0,0,1,92,181a1.17,1.17,0,0,1-.32,0C90.45,181.13,89.25,181.06,88.05,181.06Z" transform="translate(-1.77 -1.86)"/><path class="cls-1" d="M181,87.94v2.62c0,1.39-.72,2.27-1.88,2.19a2.1,2.1,0,0,1-1.86-2.17c-.12-2.16,0-4.32-.28-6.48a98.13,98.13,0,0,0-1.63-10.65c-.35-1.58.11-2.62,1.29-2.9s2.1.45,2.44,2A88.37,88.37,0,0,1,181,87.94Z" transform="translate(-1.77 -1.86)"/><path class="cls-1" d="M124,174.82a1.71,1.71,0,0,1-1.78-1.42,1.73,1.73,0,0,1,1.18-2.15h0a83.17,83.17,0,0,0,12.47-6.19c1.1-.67,2.17-1.41,3.27-2.1a2.21,2.21,0,0,1,3.06.35c.67,1,.29,1.95-1.05,2.83a91.55,91.55,0,0,1-14.24,7.73A9.12,9.12,0,0,1,124,174.82Z" transform="translate(-1.77 -1.86)"/><path class="cls-1" d="M165.38,41.64a1.69,1.69,0,0,1-1,1.73,1.74,1.74,0,0,1-2.09-.47c-1.64-1.53-2.69-3.49-4.11-5.17-2.55-3-5.14-5.95-8-8.69a2,2,0,0,1-.48-2.58,1.49,1.49,0,0,1,1.9-.85,1.47,1.47,0,0,1,.51.34,40.88,40.88,0,0,1,5.66,5.5A96.42,96.42,0,0,1,164.6,40,2.69,2.69,0,0,1,165.38,41.64Z" transform="translate(-1.77 -1.86)"/><path class="cls-1" d="M15.55,49.46c-1.54,0-2.31-1.7-1.38-3.22,1.14-1.89,2.36-3.73,3.59-5.55A90.31,90.31,0,0,1,25,31.58a2.1,2.1,0,0,1,2.93-.5l.22.18c.73.72.61,1.92-.35,2.95a77.52,77.52,0,0,0-10.13,13.7C17.14,48.71,16.62,49.46,15.55,49.46Z" transform="translate(-1.77 -1.86)"/><path class="cls-1" d="M11.56,123.49a1.76,1.76,0,0,1-1.28,1.83,1.72,1.72,0,0,1-2.1-.88,17.24,17.24,0,0,1-1.53-3.87A92,92,0,0,1,3,106a2,2,0,0,1,1.52-2.23,1.67,1.67,0,0,1,2.05,1.17,2.56,2.56,0,0,1,0,.27,105.68,105.68,0,0,0,4.85,17.75A3.71,3.71,0,0,1,11.56,123.49Z" transform="translate(-1.77 -1.86)"/><path class="cls-1" d="M146.41,161.42a1.22,1.22,0,0,1-1.49-.83,2.31,2.31,0,0,1,.78-2.59c1.19-1,2.36-2.09,3.57-3.14a78.35,78.35,0,0,0,8.39-8.7c1.29-1.47,2.31-1.92,3.24-1.2s.89,2.09-.38,3.63a88.31,88.31,0,0,1-12,12.06A2.86,2.86,0,0,1,146.41,161.42Z" transform="translate(-1.77 -1.86)"/><path class="cls-1" d="M180.65,100.08a84.54,84.54,0,0,1-3.41,17.26,1.76,1.76,0,0,1-2.08,1.36l-.14,0a1.71,1.71,0,0,1-1.33-2,8.9,8.9,0,0,1,.44-2.24,70.57,70.57,0,0,0,2.77-15c.16-2.1.64-2.85,2.1-2.79S180.74,97.42,180.65,100.08Z" transform="translate(-1.77 -1.86)"/><path class="cls-1" d="M99.45,180.8c-1,.06-2.17,0-2.65-1.21a1.9,1.9,0,0,1,.75-2.16,1.72,1.72,0,0,1,1.19-.4,70.5,70.5,0,0,0,16.49-3,9.45,9.45,0,0,1,1.39-.26,1.71,1.71,0,0,1,2.17,1.38,1.83,1.83,0,0,1-1.46,2.15h0c-2.33.69-4.68,1.36-7.07,1.87A93.22,93.22,0,0,1,99.45,180.8Z" transform="translate(-1.77 -1.86)"/><path class="cls-1" d="M140.47,72.79a4,4,0,0,0-3.59-2c-3.27,0-6.55-.06-9.81,0-1.33,0-1.62-.41-1.57-1.63.1-2.16.07-4.33,0-6.49A17.55,17.55,0,0,0,99.05,48.11a16,16,0,0,0-7.34,8.6c-.38,1-.92,1.16-1.71.44a24.58,24.58,0,0,0-14.76-6.63,23.51,23.51,0,0,0-14,2.91A25.21,25.21,0,0,0,49.43,68.11,22.74,22.74,0,0,0,48.29,78c.63,4.84,3.15,8.69,6.44,12.11A42.06,42.06,0,0,0,64,97.57c.41.24,1.18.34,1,1.05s-.74.7-1.18,1c-1.14.68-2.38,1.17-3.57,1.77-4.92,2.55-9.87,5.09-15.27,6.58-2.51.69-3.45,2.55-2.76,5,.49,1.79,2.63,2.82,4.82,2.28a46.35,46.35,0,0,0,7.33-2.62A149.62,149.62,0,0,0,71.14,104a1.12,1.12,0,0,1,1.57.07,1.18,1.18,0,0,1,.13.18A21,21,0,0,0,75.57,107c1.05.84.78,1.38-.07,2.1a62.55,62.55,0,0,1-7.7,6,59,59,0,0,1-11.89,6.08A64.54,64.54,0,0,1,45.06,124c-1.12.21-2.37.57-2.75,1.77-.43,1.43-.63,3.07.43,4.28a4.19,4.19,0,0,0,4,1.29,64.13,64.13,0,0,0,15-4.37A69.08,69.08,0,0,0,81.27,114a1.56,1.56,0,0,1,2.17-.32l.06,0a45.37,45.37,0,0,0,4.76,2.89c1.14.53,2.31,1,2.16,3-.27,3.59-.08,7.2-.06,10.82a17.92,17.92,0,0,0,.13,3.73,3.8,3.8,0,0,0,3.91,3.27,3.89,3.89,0,0,0,3.5-4.06c-.12-8.84,0-17.7,0-26.55V79.72c0-1.16.33-1.46,1.46-1.45h16.77c2,0,2,0,2,2v44.43c0,2.69,0,5.36-.17,8.05a4,4,0,0,0,3.21,4.58q.32,0,.63.06c1.94.17,3.92-2,3.91-4.25-.1-17.5-.06-35-.06-52.51,0-2.33,0-2.34,2.44-2.35h9.66a2.94,2.94,0,0,0,2.63-1.48A3.56,3.56,0,0,0,140.47,72.79ZM74.09,93.86a1.35,1.35,0,0,1-1.59.2c-5-3-9.94-6-13.66-10.76A12.5,12.5,0,0,1,56,77.91a15.7,15.7,0,0,1,1.55-9.62c2.73-5.71,7.11-9.43,13.54-10.34.71-.1,1.43-.12,2.15-.17a17.27,17.27,0,0,1,16.3,12.58,22.58,22.58,0,0,1,.89,5c.21,4.19-2.1,7-4.72,9.76C82.35,88.71,78.19,91.23,74.09,93.86Zm16.44,13.62c0,.48.18,1-.27,1.35s-1-.19-1.4-.47a66.31,66.31,0,0,1-9.06-7.68c-.49-.49-.91-1.05,0-1.59a64.72,64.72,0,0,0,10-7.4,3.6,3.6,0,0,1,.54-.31,7.92,7.92,0,0,1,.15,2.91q.07,6.61.07,13.24Zm26-36.57c-5.76-.29-11.53-.08-17.28-.1-1.13,0-1.5-.3-1.44-1.46.17-2.67-.27-5.38.3-8a9.52,9.52,0,0,1,7.24-7.75,9.66,9.66,0,0,1,10.39,3.32A8.84,8.84,0,0,1,118,63.35c-.07.8,0,1.63,0,2.44h0a30.88,30.88,0,0,0,0,3.6c.15,1.26-.49,1.62-1.46,1.57Z" transform="translate(-1.77 -1.86)"/></svg>